G04 EAGLE Gerber RS-274X export*
G75*
%MOMM*%
%FSLAX34Y34*%
%LPD*%
%INBottom Copper*%
%IPPOS*%
%AMOC8*
5,1,8,0,0,1.08239X$1,22.5*%
G01*
%ADD10R,1.651000X1.651000*%
%ADD11C,1.651000*%
%ADD12R,1.650000X1.650000*%
%ADD13C,1.650000*%
%ADD14C,1.320800*%
%ADD15P,1.649562X8X22.500000*%
%ADD16R,1.400000X1.400000*%
%ADD17C,1.400000*%
%ADD18C,1.288000*%
%ADD19C,0.756400*%
%ADD20C,1.092200*%
%ADD21C,0.254000*%
%ADD22C,0.635000*%

G36*
X210632Y10183D02*
X210632Y10183D01*
X210770Y10196D01*
X210790Y10203D01*
X210810Y10206D01*
X210939Y10257D01*
X211070Y10304D01*
X211087Y10315D01*
X211105Y10323D01*
X211218Y10404D01*
X211333Y10482D01*
X211346Y10498D01*
X211363Y10509D01*
X211451Y10617D01*
X211543Y10721D01*
X211553Y10739D01*
X211565Y10754D01*
X211625Y10880D01*
X211688Y11004D01*
X211692Y11024D01*
X211701Y11042D01*
X211727Y11178D01*
X211758Y11314D01*
X211757Y11335D01*
X211761Y11354D01*
X211752Y11493D01*
X211748Y11632D01*
X211742Y11652D01*
X211741Y11672D01*
X211698Y11804D01*
X211660Y11938D01*
X211649Y11955D01*
X211643Y11974D01*
X211568Y12092D01*
X211498Y12212D01*
X211479Y12233D01*
X211473Y12243D01*
X211458Y12257D01*
X211392Y12332D01*
X207680Y16044D01*
X207680Y24462D01*
X213632Y30414D01*
X222086Y30414D01*
X222185Y30426D01*
X222284Y30429D01*
X222342Y30446D01*
X222402Y30453D01*
X222494Y30490D01*
X222589Y30517D01*
X222641Y30548D01*
X222698Y30570D01*
X222778Y30629D01*
X222863Y30679D01*
X222938Y30745D01*
X222955Y30757D01*
X222963Y30767D01*
X222984Y30785D01*
X226958Y34759D01*
X227018Y34837D01*
X227086Y34909D01*
X227115Y34962D01*
X227152Y35010D01*
X227192Y35101D01*
X227240Y35188D01*
X227255Y35246D01*
X227279Y35302D01*
X227294Y35400D01*
X227319Y35496D01*
X227325Y35596D01*
X227329Y35616D01*
X227327Y35628D01*
X227329Y35656D01*
X227329Y37708D01*
X227312Y37845D01*
X227299Y37984D01*
X227292Y38003D01*
X227289Y38023D01*
X227238Y38152D01*
X227191Y38284D01*
X227180Y38300D01*
X227172Y38319D01*
X227091Y38432D01*
X227013Y38547D01*
X226997Y38560D01*
X226986Y38576D01*
X226878Y38665D01*
X226774Y38757D01*
X226756Y38766D01*
X226741Y38779D01*
X226615Y38839D01*
X226491Y38902D01*
X226471Y38906D01*
X226453Y38915D01*
X226317Y38941D01*
X226181Y38971D01*
X226160Y38971D01*
X226141Y38975D01*
X226002Y38966D01*
X225863Y38962D01*
X225843Y38956D01*
X225823Y38955D01*
X225691Y38912D01*
X225557Y38873D01*
X225540Y38863D01*
X225521Y38857D01*
X225403Y38782D01*
X225283Y38712D01*
X225262Y38693D01*
X225252Y38687D01*
X225238Y38672D01*
X225163Y38605D01*
X222049Y35492D01*
X213632Y35492D01*
X207680Y41444D01*
X207680Y49862D01*
X213658Y55840D01*
X213719Y55918D01*
X213787Y55990D01*
X213816Y56043D01*
X213853Y56091D01*
X213892Y56182D01*
X213940Y56269D01*
X213955Y56327D01*
X213979Y56383D01*
X213995Y56481D01*
X214020Y56577D01*
X214026Y56677D01*
X214029Y56697D01*
X214028Y56709D01*
X214030Y56737D01*
X214030Y67019D01*
X227022Y80011D01*
X585778Y80011D01*
X600647Y65142D01*
X600725Y65082D01*
X600797Y65014D01*
X600850Y64985D01*
X600898Y64948D01*
X600989Y64908D01*
X601076Y64860D01*
X601134Y64845D01*
X601190Y64821D01*
X601288Y64806D01*
X601384Y64781D01*
X601484Y64775D01*
X601504Y64771D01*
X601516Y64773D01*
X601544Y64771D01*
X654358Y64771D01*
X666687Y52442D01*
X666765Y52382D01*
X666837Y52314D01*
X666890Y52285D01*
X666938Y52248D01*
X667029Y52208D01*
X667116Y52160D01*
X667174Y52145D01*
X667230Y52121D01*
X667328Y52106D01*
X667424Y52081D01*
X667524Y52075D01*
X667544Y52071D01*
X667556Y52073D01*
X667584Y52071D01*
X680143Y52071D01*
X680241Y52083D01*
X680341Y52086D01*
X680399Y52103D01*
X680459Y52111D01*
X680551Y52147D01*
X680646Y52175D01*
X680698Y52205D01*
X680755Y52228D01*
X680835Y52286D01*
X680920Y52336D01*
X680995Y52402D01*
X681012Y52414D01*
X681020Y52424D01*
X681041Y52442D01*
X682218Y53620D01*
X684542Y54583D01*
X687058Y54583D01*
X689382Y53620D01*
X691160Y51842D01*
X692123Y49518D01*
X692123Y47002D01*
X691160Y44678D01*
X689382Y42900D01*
X687058Y41937D01*
X684542Y41937D01*
X682218Y42900D01*
X681041Y44078D01*
X680963Y44138D01*
X680890Y44206D01*
X680837Y44235D01*
X680790Y44272D01*
X680699Y44312D01*
X680612Y44360D01*
X680553Y44375D01*
X680498Y44399D01*
X680400Y44414D01*
X680304Y44439D01*
X680204Y44445D01*
X680184Y44449D01*
X680171Y44447D01*
X680143Y44449D01*
X663902Y44449D01*
X651573Y56778D01*
X651495Y56838D01*
X651423Y56906D01*
X651370Y56935D01*
X651322Y56972D01*
X651231Y57012D01*
X651144Y57060D01*
X651086Y57075D01*
X651030Y57099D01*
X650932Y57114D01*
X650836Y57139D01*
X650736Y57145D01*
X650716Y57149D01*
X650704Y57147D01*
X650676Y57149D01*
X597862Y57149D01*
X582993Y72018D01*
X582915Y72078D01*
X582843Y72146D01*
X582790Y72175D01*
X582742Y72212D01*
X582651Y72252D01*
X582564Y72300D01*
X582506Y72315D01*
X582450Y72339D01*
X582352Y72354D01*
X582256Y72379D01*
X582156Y72385D01*
X582136Y72389D01*
X582124Y72387D01*
X582096Y72389D01*
X230704Y72389D01*
X230606Y72377D01*
X230507Y72374D01*
X230449Y72357D01*
X230389Y72349D01*
X230297Y72313D01*
X230201Y72285D01*
X230149Y72255D01*
X230093Y72232D01*
X230013Y72174D01*
X229928Y72124D01*
X229852Y72058D01*
X229836Y72046D01*
X229828Y72036D01*
X229807Y72018D01*
X222023Y64234D01*
X221962Y64156D01*
X221895Y64084D01*
X221865Y64031D01*
X221828Y63983D01*
X221789Y63892D01*
X221741Y63805D01*
X221726Y63746D01*
X221702Y63691D01*
X221686Y63593D01*
X221662Y63497D01*
X221655Y63397D01*
X221652Y63377D01*
X221653Y63364D01*
X221651Y63336D01*
X221651Y56737D01*
X221664Y56639D01*
X221667Y56540D01*
X221684Y56482D01*
X221691Y56422D01*
X221728Y56330D01*
X221755Y56235D01*
X221786Y56182D01*
X221808Y56126D01*
X221866Y56046D01*
X221917Y55961D01*
X221983Y55885D01*
X221995Y55869D01*
X222004Y55861D01*
X222023Y55840D01*
X225163Y52700D01*
X225272Y52615D01*
X225379Y52526D01*
X225398Y52518D01*
X225414Y52505D01*
X225542Y52450D01*
X225667Y52391D01*
X225687Y52387D01*
X225706Y52379D01*
X225844Y52357D01*
X225980Y52331D01*
X226000Y52332D01*
X226020Y52329D01*
X226159Y52342D01*
X226297Y52351D01*
X226316Y52357D01*
X226336Y52359D01*
X226468Y52406D01*
X226599Y52449D01*
X226617Y52460D01*
X226636Y52467D01*
X226751Y52545D01*
X226868Y52619D01*
X226882Y52634D01*
X226899Y52645D01*
X226991Y52749D01*
X227086Y52851D01*
X227096Y52868D01*
X227109Y52884D01*
X227173Y53008D01*
X227240Y53129D01*
X227245Y53149D01*
X227254Y53167D01*
X227284Y53303D01*
X227319Y53437D01*
X227321Y53465D01*
X227324Y53477D01*
X227323Y53498D01*
X227329Y53598D01*
X227329Y57458D01*
X234578Y64707D01*
X237182Y67311D01*
X580698Y67311D01*
X583303Y64707D01*
X595567Y52442D01*
X595645Y52382D01*
X595717Y52314D01*
X595770Y52285D01*
X595818Y52248D01*
X595909Y52208D01*
X595996Y52160D01*
X596054Y52145D01*
X596110Y52121D01*
X596208Y52106D01*
X596303Y52081D01*
X596404Y52075D01*
X596424Y52071D01*
X596436Y52073D01*
X596464Y52071D01*
X626803Y52071D01*
X626901Y52083D01*
X627001Y52086D01*
X627059Y52103D01*
X627119Y52111D01*
X627211Y52147D01*
X627306Y52175D01*
X627358Y52205D01*
X627415Y52228D01*
X627495Y52286D01*
X627580Y52336D01*
X627655Y52402D01*
X627672Y52414D01*
X627680Y52424D01*
X627701Y52442D01*
X628878Y53620D01*
X631202Y54583D01*
X633718Y54583D01*
X636042Y53620D01*
X637820Y51842D01*
X638783Y49518D01*
X638783Y47002D01*
X637820Y44678D01*
X636042Y42900D01*
X633718Y41937D01*
X631202Y41937D01*
X628878Y42900D01*
X627701Y44078D01*
X627623Y44138D01*
X627550Y44206D01*
X627497Y44235D01*
X627450Y44272D01*
X627359Y44312D01*
X627272Y44360D01*
X627213Y44375D01*
X627158Y44399D01*
X627060Y44414D01*
X626964Y44439D01*
X626864Y44445D01*
X626844Y44449D01*
X626831Y44447D01*
X626803Y44449D01*
X592782Y44449D01*
X590178Y47053D01*
X577913Y59318D01*
X577835Y59378D01*
X577763Y59446D01*
X577710Y59475D01*
X577662Y59512D01*
X577571Y59552D01*
X577484Y59600D01*
X577426Y59615D01*
X577370Y59639D01*
X577272Y59654D01*
X577176Y59679D01*
X577076Y59685D01*
X577056Y59689D01*
X577044Y59687D01*
X577016Y59689D01*
X240864Y59689D01*
X240766Y59677D01*
X240667Y59674D01*
X240609Y59657D01*
X240549Y59649D01*
X240457Y59613D01*
X240361Y59585D01*
X240309Y59555D01*
X240253Y59532D01*
X240173Y59474D01*
X240088Y59424D01*
X240012Y59358D01*
X239996Y59346D01*
X239988Y59336D01*
X239967Y59318D01*
X238630Y57980D01*
X238544Y57870D01*
X238456Y57763D01*
X238447Y57745D01*
X238435Y57729D01*
X238379Y57601D01*
X238320Y57476D01*
X238316Y57456D01*
X238308Y57437D01*
X238286Y57299D01*
X238260Y57163D01*
X238262Y57143D01*
X238258Y57123D01*
X238271Y56984D01*
X238280Y56846D01*
X238286Y56827D01*
X238288Y56807D01*
X238335Y56675D01*
X238378Y56543D01*
X238389Y56526D01*
X238396Y56507D01*
X238474Y56392D01*
X238548Y56275D01*
X238563Y56261D01*
X238574Y56244D01*
X238678Y56152D01*
X238780Y56057D01*
X238798Y56047D01*
X238813Y56034D01*
X238937Y55970D01*
X239058Y55903D01*
X239078Y55898D01*
X239096Y55889D01*
X239232Y55859D01*
X239366Y55824D01*
X239394Y55822D01*
X239406Y55819D01*
X239427Y55820D01*
X239527Y55814D01*
X247449Y55814D01*
X253401Y49862D01*
X253401Y41444D01*
X247449Y35492D01*
X239032Y35492D01*
X237117Y37407D01*
X237008Y37492D01*
X236901Y37580D01*
X236882Y37589D01*
X236866Y37602D01*
X236738Y37657D01*
X236613Y37716D01*
X236593Y37720D01*
X236574Y37728D01*
X236436Y37750D01*
X236300Y37776D01*
X236280Y37775D01*
X236260Y37778D01*
X236121Y37765D01*
X235983Y37756D01*
X235964Y37750D01*
X235944Y37748D01*
X235812Y37701D01*
X235681Y37658D01*
X235663Y37647D01*
X235644Y37640D01*
X235529Y37562D01*
X235412Y37488D01*
X235398Y37473D01*
X235381Y37462D01*
X235289Y37357D01*
X235194Y37256D01*
X235184Y37239D01*
X235171Y37223D01*
X235107Y37099D01*
X235040Y36978D01*
X235035Y36958D01*
X235026Y36940D01*
X234996Y36804D01*
X234961Y36670D01*
X234959Y36642D01*
X234956Y36630D01*
X234957Y36609D01*
X234951Y36509D01*
X234951Y31974D01*
X232347Y29370D01*
X228373Y25396D01*
X228312Y25318D01*
X228245Y25246D01*
X228215Y25193D01*
X228178Y25145D01*
X228139Y25054D01*
X228091Y24967D01*
X228076Y24909D01*
X228052Y24853D01*
X228036Y24755D01*
X228012Y24659D01*
X228005Y24559D01*
X228002Y24539D01*
X228003Y24527D01*
X228001Y24499D01*
X228001Y16044D01*
X224290Y12332D01*
X224204Y12223D01*
X224116Y12116D01*
X224107Y12097D01*
X224095Y12081D01*
X224039Y11953D01*
X223980Y11828D01*
X223976Y11808D01*
X223968Y11789D01*
X223946Y11651D01*
X223920Y11515D01*
X223922Y11495D01*
X223918Y11475D01*
X223932Y11336D01*
X223940Y11198D01*
X223946Y11179D01*
X223948Y11159D01*
X223995Y11027D01*
X224038Y10896D01*
X224049Y10878D01*
X224056Y10859D01*
X224134Y10744D01*
X224208Y10627D01*
X224223Y10613D01*
X224234Y10596D01*
X224339Y10504D01*
X224440Y10409D01*
X224458Y10399D01*
X224473Y10386D01*
X224597Y10322D01*
X224718Y10255D01*
X224738Y10250D01*
X224756Y10241D01*
X224892Y10211D01*
X225026Y10176D01*
X225054Y10174D01*
X225066Y10171D01*
X225087Y10172D01*
X225187Y10166D01*
X235894Y10166D01*
X236032Y10183D01*
X236170Y10196D01*
X236190Y10203D01*
X236210Y10206D01*
X236339Y10257D01*
X236470Y10304D01*
X236487Y10315D01*
X236505Y10323D01*
X236618Y10404D01*
X236733Y10482D01*
X236746Y10498D01*
X236763Y10509D01*
X236851Y10617D01*
X236943Y10721D01*
X236953Y10739D01*
X236965Y10754D01*
X237025Y10880D01*
X237088Y11004D01*
X237092Y11024D01*
X237101Y11042D01*
X237127Y11178D01*
X237158Y11314D01*
X237157Y11335D01*
X237161Y11354D01*
X237152Y11493D01*
X237148Y11632D01*
X237142Y11652D01*
X237141Y11672D01*
X237098Y11804D01*
X237060Y11938D01*
X237049Y11955D01*
X237043Y11974D01*
X236968Y12092D01*
X236898Y12212D01*
X236879Y12233D01*
X236873Y12243D01*
X236858Y12257D01*
X236792Y12332D01*
X233080Y16044D01*
X233080Y24462D01*
X239032Y30414D01*
X247449Y30414D01*
X253401Y24462D01*
X253401Y16044D01*
X249690Y12332D01*
X249604Y12223D01*
X249516Y12116D01*
X249507Y12097D01*
X249495Y12081D01*
X249439Y11953D01*
X249380Y11828D01*
X249376Y11808D01*
X249368Y11789D01*
X249346Y11651D01*
X249320Y11515D01*
X249322Y11495D01*
X249318Y11475D01*
X249332Y11336D01*
X249340Y11198D01*
X249346Y11179D01*
X249348Y11159D01*
X249395Y11027D01*
X249438Y10896D01*
X249449Y10878D01*
X249456Y10859D01*
X249534Y10744D01*
X249608Y10627D01*
X249623Y10613D01*
X249634Y10596D01*
X249739Y10504D01*
X249840Y10409D01*
X249858Y10399D01*
X249873Y10386D01*
X249997Y10322D01*
X250118Y10255D01*
X250138Y10250D01*
X250156Y10241D01*
X250292Y10211D01*
X250426Y10176D01*
X250454Y10174D01*
X250466Y10171D01*
X250487Y10172D01*
X250587Y10166D01*
X261294Y10166D01*
X261432Y10183D01*
X261570Y10196D01*
X261590Y10203D01*
X261610Y10206D01*
X261739Y10257D01*
X261870Y10304D01*
X261887Y10315D01*
X261905Y10323D01*
X262018Y10404D01*
X262133Y10482D01*
X262146Y10498D01*
X262163Y10509D01*
X262251Y10617D01*
X262343Y10721D01*
X262353Y10739D01*
X262365Y10754D01*
X262425Y10880D01*
X262488Y11004D01*
X262492Y11024D01*
X262501Y11042D01*
X262527Y11178D01*
X262558Y11314D01*
X262557Y11335D01*
X262561Y11354D01*
X262552Y11493D01*
X262548Y11632D01*
X262542Y11652D01*
X262541Y11672D01*
X262498Y11804D01*
X262460Y11938D01*
X262449Y11955D01*
X262443Y11974D01*
X262368Y12092D01*
X262298Y12212D01*
X262279Y12233D01*
X262273Y12243D01*
X262258Y12257D01*
X262192Y12332D01*
X258480Y16044D01*
X258480Y24462D01*
X264432Y30414D01*
X272849Y30414D01*
X278801Y24462D01*
X278801Y16044D01*
X275090Y12332D01*
X275004Y12223D01*
X274916Y12116D01*
X274907Y12097D01*
X274895Y12081D01*
X274839Y11953D01*
X274780Y11828D01*
X274776Y11808D01*
X274768Y11789D01*
X274746Y11651D01*
X274720Y11515D01*
X274722Y11495D01*
X274718Y11475D01*
X274732Y11336D01*
X274740Y11198D01*
X274746Y11179D01*
X274748Y11159D01*
X274795Y11027D01*
X274838Y10896D01*
X274849Y10878D01*
X274856Y10859D01*
X274934Y10744D01*
X275008Y10627D01*
X275023Y10613D01*
X275034Y10596D01*
X275139Y10504D01*
X275240Y10409D01*
X275258Y10399D01*
X275273Y10386D01*
X275397Y10322D01*
X275518Y10255D01*
X275538Y10250D01*
X275556Y10241D01*
X275692Y10211D01*
X275826Y10176D01*
X275854Y10174D01*
X275866Y10171D01*
X275887Y10172D01*
X275987Y10166D01*
X286694Y10166D01*
X286832Y10183D01*
X286970Y10196D01*
X286990Y10203D01*
X287010Y10206D01*
X287139Y10257D01*
X287270Y10304D01*
X287287Y10315D01*
X287305Y10323D01*
X287418Y10404D01*
X287533Y10482D01*
X287546Y10498D01*
X287563Y10509D01*
X287651Y10617D01*
X287743Y10721D01*
X287753Y10739D01*
X287765Y10754D01*
X287825Y10880D01*
X287888Y11004D01*
X287892Y11024D01*
X287901Y11042D01*
X287927Y11178D01*
X287958Y11314D01*
X287957Y11335D01*
X287961Y11354D01*
X287952Y11493D01*
X287948Y11632D01*
X287942Y11652D01*
X287941Y11672D01*
X287898Y11804D01*
X287860Y11938D01*
X287849Y11955D01*
X287843Y11974D01*
X287768Y12092D01*
X287698Y12212D01*
X287679Y12233D01*
X287673Y12243D01*
X287658Y12257D01*
X287592Y12332D01*
X283880Y16044D01*
X283880Y24462D01*
X289832Y30414D01*
X298249Y30414D01*
X304201Y24462D01*
X304201Y16044D01*
X300490Y12332D01*
X300404Y12223D01*
X300316Y12116D01*
X300307Y12097D01*
X300295Y12081D01*
X300239Y11953D01*
X300180Y11828D01*
X300176Y11808D01*
X300168Y11789D01*
X300146Y11651D01*
X300120Y11515D01*
X300122Y11495D01*
X300118Y11475D01*
X300132Y11336D01*
X300140Y11198D01*
X300146Y11179D01*
X300148Y11159D01*
X300195Y11027D01*
X300238Y10896D01*
X300249Y10878D01*
X300256Y10859D01*
X300334Y10744D01*
X300408Y10627D01*
X300423Y10613D01*
X300434Y10596D01*
X300539Y10504D01*
X300640Y10409D01*
X300658Y10399D01*
X300673Y10386D01*
X300797Y10322D01*
X300918Y10255D01*
X300938Y10250D01*
X300956Y10241D01*
X301092Y10211D01*
X301226Y10176D01*
X301254Y10174D01*
X301266Y10171D01*
X301287Y10172D01*
X301387Y10166D01*
X733581Y10166D01*
X733719Y10183D01*
X733857Y10196D01*
X733876Y10203D01*
X733897Y10206D01*
X734026Y10257D01*
X734157Y10304D01*
X734174Y10315D01*
X734192Y10323D01*
X734305Y10404D01*
X734420Y10482D01*
X734433Y10498D01*
X734450Y10509D01*
X734538Y10617D01*
X734630Y10721D01*
X734640Y10739D01*
X734652Y10754D01*
X734712Y10880D01*
X734775Y11004D01*
X734779Y11024D01*
X734788Y11042D01*
X734814Y11179D01*
X734845Y11314D01*
X734844Y11335D01*
X734848Y11354D01*
X734839Y11493D01*
X734835Y11632D01*
X734829Y11652D01*
X734828Y11672D01*
X734785Y11804D01*
X734747Y11938D01*
X734736Y11955D01*
X734730Y11974D01*
X734656Y12092D01*
X734585Y12212D01*
X734566Y12233D01*
X734560Y12243D01*
X734545Y12257D01*
X734479Y12332D01*
X732944Y13867D01*
X727534Y24484D01*
X725670Y36253D01*
X727534Y48022D01*
X732944Y58639D01*
X741370Y67064D01*
X751986Y72474D01*
X763755Y74338D01*
X775524Y72474D01*
X786141Y67064D01*
X787669Y65536D01*
X787779Y65451D01*
X787886Y65362D01*
X787904Y65353D01*
X787921Y65341D01*
X788049Y65286D01*
X788174Y65227D01*
X788194Y65223D01*
X788212Y65215D01*
X788350Y65193D01*
X788486Y65167D01*
X788506Y65168D01*
X788526Y65165D01*
X788665Y65178D01*
X788804Y65187D01*
X788823Y65193D01*
X788843Y65195D01*
X788974Y65242D01*
X789106Y65285D01*
X789123Y65295D01*
X789142Y65302D01*
X789257Y65380D01*
X789375Y65455D01*
X789389Y65470D01*
X789405Y65481D01*
X789498Y65585D01*
X789593Y65686D01*
X789603Y65704D01*
X789616Y65719D01*
X789679Y65843D01*
X789746Y65965D01*
X789751Y65984D01*
X789761Y66003D01*
X789791Y66138D01*
X789826Y66273D01*
X789828Y66301D01*
X789830Y66313D01*
X789830Y66333D01*
X789836Y66433D01*
X789836Y433385D01*
X789819Y433523D01*
X789806Y433662D01*
X789799Y433681D01*
X789796Y433701D01*
X789745Y433830D01*
X789698Y433961D01*
X789687Y433978D01*
X789679Y433997D01*
X789598Y434109D01*
X789519Y434224D01*
X789504Y434238D01*
X789492Y434254D01*
X789385Y434343D01*
X789281Y434435D01*
X789263Y434444D01*
X789247Y434457D01*
X789121Y434516D01*
X788998Y434579D01*
X788978Y434584D01*
X788960Y434592D01*
X788823Y434618D01*
X788687Y434649D01*
X788667Y434648D01*
X788647Y434652D01*
X788509Y434644D01*
X788369Y434639D01*
X788350Y434634D01*
X788330Y434632D01*
X788198Y434590D01*
X788064Y434551D01*
X788047Y434541D01*
X788027Y434534D01*
X787910Y434460D01*
X787790Y434389D01*
X787769Y434371D01*
X787759Y434364D01*
X787745Y434349D01*
X787669Y434283D01*
X786691Y433305D01*
X776074Y427895D01*
X764305Y426031D01*
X752536Y427895D01*
X741919Y433305D01*
X733494Y441730D01*
X728084Y452347D01*
X726220Y464116D01*
X728084Y475885D01*
X733494Y486502D01*
X734661Y487669D01*
X734746Y487779D01*
X734835Y487886D01*
X734844Y487905D01*
X734856Y487921D01*
X734912Y488048D01*
X734971Y488174D01*
X734975Y488194D01*
X734983Y488212D01*
X735005Y488350D01*
X735031Y488486D01*
X735029Y488506D01*
X735032Y488526D01*
X735019Y488665D01*
X735011Y488804D01*
X735005Y488823D01*
X735003Y488843D01*
X734955Y488974D01*
X734913Y489106D01*
X734902Y489123D01*
X734895Y489142D01*
X734817Y489257D01*
X734743Y489375D01*
X734728Y489389D01*
X734716Y489405D01*
X734612Y489498D01*
X734511Y489593D01*
X734493Y489603D01*
X734478Y489616D01*
X734354Y489679D01*
X734232Y489746D01*
X734213Y489751D01*
X734195Y489761D01*
X734059Y489791D01*
X733925Y489826D01*
X733896Y489828D01*
X733885Y489830D01*
X733864Y489830D01*
X733764Y489836D01*
X66807Y489836D01*
X66670Y489819D01*
X66531Y489806D01*
X66512Y489799D01*
X66492Y489796D01*
X66363Y489745D01*
X66232Y489698D01*
X66215Y489687D01*
X66196Y489679D01*
X66084Y489598D01*
X65969Y489519D01*
X65955Y489504D01*
X65939Y489492D01*
X65850Y489385D01*
X65758Y489281D01*
X65749Y489263D01*
X65736Y489247D01*
X65677Y489122D01*
X65614Y488998D01*
X65609Y488978D01*
X65601Y488960D01*
X65574Y488823D01*
X65544Y488687D01*
X65545Y488667D01*
X65541Y488647D01*
X65549Y488509D01*
X65554Y488370D01*
X65559Y488350D01*
X65560Y488330D01*
X65603Y488198D01*
X65642Y488064D01*
X65652Y488047D01*
X65659Y488027D01*
X65733Y487910D01*
X65804Y487790D01*
X65822Y487769D01*
X65829Y487759D01*
X65844Y487745D01*
X65910Y487669D01*
X66967Y486613D01*
X72376Y475996D01*
X74240Y464227D01*
X72376Y452458D01*
X66966Y441841D01*
X58541Y433416D01*
X47924Y428006D01*
X36155Y426142D01*
X24386Y428006D01*
X13769Y433416D01*
X12332Y434853D01*
X12223Y434938D01*
X12116Y435026D01*
X12097Y435035D01*
X12081Y435047D01*
X11953Y435103D01*
X11828Y435162D01*
X11808Y435166D01*
X11789Y435174D01*
X11651Y435196D01*
X11515Y435222D01*
X11495Y435220D01*
X11475Y435224D01*
X11336Y435211D01*
X11198Y435202D01*
X11179Y435196D01*
X11159Y435194D01*
X11027Y435147D01*
X10896Y435104D01*
X10878Y435093D01*
X10859Y435086D01*
X10744Y435008D01*
X10627Y434934D01*
X10613Y434919D01*
X10596Y434908D01*
X10504Y434803D01*
X10409Y434702D01*
X10399Y434684D01*
X10386Y434669D01*
X10322Y434545D01*
X10255Y434424D01*
X10250Y434404D01*
X10241Y434386D01*
X10211Y434250D01*
X10176Y434116D01*
X10174Y434088D01*
X10171Y434076D01*
X10172Y434055D01*
X10166Y433955D01*
X10166Y66365D01*
X10183Y66227D01*
X10196Y66089D01*
X10203Y66070D01*
X10206Y66050D01*
X10257Y65920D01*
X10304Y65790D01*
X10315Y65773D01*
X10323Y65754D01*
X10404Y65641D01*
X10482Y65526D01*
X10498Y65513D01*
X10509Y65497D01*
X10617Y65408D01*
X10721Y65316D01*
X10739Y65307D01*
X10754Y65294D01*
X10880Y65235D01*
X11004Y65171D01*
X11024Y65167D01*
X11042Y65158D01*
X11179Y65132D01*
X11314Y65102D01*
X11335Y65102D01*
X11354Y65098D01*
X11493Y65107D01*
X11632Y65111D01*
X11652Y65117D01*
X11672Y65118D01*
X11804Y65161D01*
X11938Y65200D01*
X11955Y65210D01*
X11974Y65216D01*
X12092Y65291D01*
X12212Y65361D01*
X12233Y65380D01*
X12243Y65386D01*
X12257Y65401D01*
X12332Y65468D01*
X13709Y66845D01*
X24326Y72254D01*
X36095Y74118D01*
X47864Y72254D01*
X58481Y66845D01*
X66906Y58419D01*
X72316Y47802D01*
X74180Y36033D01*
X72316Y24264D01*
X66906Y13647D01*
X65591Y12332D01*
X65506Y12223D01*
X65418Y12116D01*
X65409Y12097D01*
X65397Y12081D01*
X65341Y11954D01*
X65282Y11828D01*
X65278Y11808D01*
X65270Y11789D01*
X65248Y11651D01*
X65222Y11515D01*
X65224Y11495D01*
X65220Y11475D01*
X65233Y11336D01*
X65242Y11198D01*
X65248Y11179D01*
X65250Y11159D01*
X65297Y11027D01*
X65340Y10896D01*
X65351Y10878D01*
X65358Y10859D01*
X65436Y10744D01*
X65510Y10627D01*
X65525Y10613D01*
X65536Y10596D01*
X65641Y10504D01*
X65742Y10409D01*
X65760Y10399D01*
X65775Y10386D01*
X65899Y10322D01*
X66020Y10255D01*
X66040Y10250D01*
X66058Y10241D01*
X66194Y10211D01*
X66328Y10176D01*
X66356Y10174D01*
X66368Y10171D01*
X66389Y10172D01*
X66489Y10166D01*
X210494Y10166D01*
X210632Y10183D01*
G37*
%LPC*%
G36*
X293382Y105437D02*
X293382Y105437D01*
X291058Y106400D01*
X289280Y108178D01*
X288317Y110502D01*
X288317Y113018D01*
X289280Y115342D01*
X290458Y116519D01*
X290518Y116597D01*
X290586Y116670D01*
X290615Y116723D01*
X290652Y116770D01*
X290692Y116861D01*
X290740Y116948D01*
X290755Y117007D01*
X290779Y117062D01*
X290794Y117160D01*
X290819Y117256D01*
X290825Y117356D01*
X290829Y117376D01*
X290827Y117389D01*
X290829Y117417D01*
X290829Y194618D01*
X303222Y207011D01*
X367723Y207011D01*
X367821Y207023D01*
X367921Y207026D01*
X367979Y207043D01*
X368039Y207051D01*
X368131Y207087D01*
X368226Y207115D01*
X368278Y207145D01*
X368335Y207168D01*
X368415Y207226D01*
X368500Y207276D01*
X368575Y207342D01*
X368592Y207354D01*
X368600Y207364D01*
X368621Y207382D01*
X369798Y208560D01*
X372122Y209523D01*
X374638Y209523D01*
X376962Y208560D01*
X378740Y206782D01*
X379703Y204458D01*
X379703Y201942D01*
X378743Y199626D01*
X378725Y199558D01*
X378697Y199494D01*
X378683Y199405D01*
X378659Y199319D01*
X378658Y199249D01*
X378647Y199180D01*
X378656Y199091D01*
X378654Y199001D01*
X378670Y198933D01*
X378677Y198864D01*
X378707Y198779D01*
X378728Y198692D01*
X378761Y198630D01*
X378785Y198564D01*
X378835Y198490D01*
X378877Y198411D01*
X378924Y198359D01*
X378963Y198301D01*
X379030Y198242D01*
X379091Y198175D01*
X379149Y198137D01*
X379202Y198091D01*
X379281Y198050D01*
X379357Y198000D01*
X379423Y197978D01*
X379485Y197946D01*
X379572Y197926D01*
X379657Y197897D01*
X379727Y197892D01*
X379795Y197876D01*
X379885Y197879D01*
X379974Y197872D01*
X380043Y197884D01*
X380113Y197886D01*
X380199Y197911D01*
X380288Y197926D01*
X380351Y197955D01*
X380418Y197974D01*
X380496Y198020D01*
X380578Y198057D01*
X380632Y198101D01*
X380692Y198136D01*
X380813Y198242D01*
X384438Y201867D01*
X387042Y204471D01*
X482023Y204471D01*
X482121Y204483D01*
X482221Y204486D01*
X482279Y204503D01*
X482339Y204511D01*
X482431Y204547D01*
X482526Y204575D01*
X482578Y204605D01*
X482635Y204628D01*
X482715Y204686D01*
X482800Y204736D01*
X482875Y204802D01*
X482892Y204814D01*
X482900Y204824D01*
X482921Y204842D01*
X484098Y206020D01*
X486422Y206983D01*
X488938Y206983D01*
X491262Y206020D01*
X493040Y204242D01*
X494003Y201918D01*
X494003Y199402D01*
X493040Y197078D01*
X491262Y195300D01*
X488938Y194337D01*
X486422Y194337D01*
X484098Y195300D01*
X482921Y196478D01*
X482843Y196538D01*
X482770Y196606D01*
X482717Y196635D01*
X482670Y196672D01*
X482579Y196712D01*
X482492Y196760D01*
X482433Y196775D01*
X482378Y196799D01*
X482280Y196814D01*
X482184Y196839D01*
X482084Y196845D01*
X482064Y196849D01*
X482051Y196847D01*
X482023Y196849D01*
X390724Y196849D01*
X390626Y196837D01*
X390527Y196834D01*
X390469Y196817D01*
X390409Y196809D01*
X390317Y196773D01*
X390221Y196745D01*
X390169Y196715D01*
X390113Y196692D01*
X390033Y196634D01*
X389948Y196584D01*
X389872Y196518D01*
X389856Y196506D01*
X389848Y196496D01*
X389827Y196478D01*
X379473Y186124D01*
X379442Y186084D01*
X379406Y186051D01*
X379345Y185959D01*
X379278Y185872D01*
X379258Y185827D01*
X379231Y185785D01*
X379195Y185681D01*
X379152Y185581D01*
X379144Y185531D01*
X379128Y185485D01*
X379119Y185375D01*
X379102Y185266D01*
X379106Y185217D01*
X379102Y185167D01*
X379121Y185059D01*
X379132Y184950D01*
X379148Y184903D01*
X379157Y184854D01*
X379202Y184754D01*
X379239Y184651D01*
X379267Y184609D01*
X379287Y184564D01*
X379356Y184478D01*
X379418Y184387D01*
X379455Y184355D01*
X379486Y184316D01*
X379574Y184250D01*
X379656Y184177D01*
X379700Y184154D01*
X379740Y184124D01*
X379885Y184054D01*
X382042Y183160D01*
X383820Y181382D01*
X384783Y179058D01*
X384783Y176542D01*
X383820Y174218D01*
X382042Y172440D01*
X379718Y171477D01*
X377202Y171477D01*
X374878Y172440D01*
X373701Y173618D01*
X373623Y173678D01*
X373550Y173746D01*
X373497Y173775D01*
X373450Y173812D01*
X373359Y173852D01*
X373272Y173900D01*
X373213Y173915D01*
X373158Y173939D01*
X373060Y173954D01*
X372964Y173979D01*
X372864Y173985D01*
X372844Y173989D01*
X372831Y173987D01*
X372803Y173989D01*
X350084Y173989D01*
X349986Y173977D01*
X349887Y173974D01*
X349829Y173957D01*
X349769Y173949D01*
X349677Y173913D01*
X349581Y173885D01*
X349529Y173855D01*
X349473Y173832D01*
X349393Y173774D01*
X349308Y173724D01*
X349232Y173658D01*
X349216Y173646D01*
X349208Y173636D01*
X349187Y173618D01*
X339462Y163893D01*
X339402Y163815D01*
X339334Y163743D01*
X339305Y163690D01*
X339268Y163642D01*
X339228Y163551D01*
X339180Y163464D01*
X339165Y163406D01*
X339141Y163350D01*
X339126Y163252D01*
X339101Y163156D01*
X339095Y163056D01*
X339091Y163036D01*
X339093Y163024D01*
X339091Y162996D01*
X339091Y117417D01*
X339103Y117319D01*
X339106Y117219D01*
X339123Y117161D01*
X339131Y117101D01*
X339167Y117009D01*
X339195Y116914D01*
X339225Y116862D01*
X339248Y116805D01*
X339306Y116725D01*
X339356Y116640D01*
X339422Y116565D01*
X339434Y116548D01*
X339444Y116540D01*
X339462Y116519D01*
X340640Y115342D01*
X341603Y113018D01*
X341603Y110502D01*
X340640Y108178D01*
X338862Y106400D01*
X336538Y105437D01*
X334022Y105437D01*
X331698Y106400D01*
X329920Y108178D01*
X328957Y110502D01*
X328957Y113018D01*
X329920Y115342D01*
X331098Y116519D01*
X331158Y116597D01*
X331226Y116670D01*
X331255Y116723D01*
X331292Y116770D01*
X331332Y116861D01*
X331380Y116948D01*
X331395Y117007D01*
X331419Y117062D01*
X331434Y117160D01*
X331459Y117256D01*
X331465Y117356D01*
X331469Y117376D01*
X331467Y117389D01*
X331469Y117417D01*
X331469Y121343D01*
X331452Y121481D01*
X331439Y121620D01*
X331432Y121639D01*
X331429Y121659D01*
X331378Y121788D01*
X331331Y121919D01*
X331320Y121936D01*
X331312Y121955D01*
X331231Y122067D01*
X331153Y122182D01*
X331137Y122196D01*
X331126Y122212D01*
X331018Y122301D01*
X330914Y122393D01*
X330896Y122402D01*
X330881Y122415D01*
X330755Y122474D01*
X330631Y122537D01*
X330611Y122542D01*
X330593Y122550D01*
X330456Y122576D01*
X330321Y122607D01*
X330300Y122606D01*
X330281Y122610D01*
X330142Y122601D01*
X330003Y122597D01*
X329983Y122592D01*
X329963Y122590D01*
X329831Y122548D01*
X329697Y122509D01*
X329680Y122498D01*
X329661Y122492D01*
X329543Y122418D01*
X329423Y122347D01*
X329402Y122329D01*
X329392Y122322D01*
X329378Y122307D01*
X329303Y122241D01*
X328702Y121640D01*
X326378Y120677D01*
X323862Y120677D01*
X321538Y121640D01*
X319760Y123418D01*
X318797Y125742D01*
X318797Y128258D01*
X319760Y130582D01*
X320938Y131759D01*
X320998Y131837D01*
X321066Y131910D01*
X321095Y131963D01*
X321132Y132010D01*
X321172Y132101D01*
X321220Y132188D01*
X321235Y132247D01*
X321259Y132302D01*
X321274Y132400D01*
X321299Y132496D01*
X321305Y132596D01*
X321309Y132616D01*
X321307Y132629D01*
X321309Y132657D01*
X321309Y174298D01*
X338782Y191771D01*
X373816Y191771D01*
X373914Y191783D01*
X374013Y191786D01*
X374071Y191803D01*
X374131Y191811D01*
X374223Y191847D01*
X374319Y191875D01*
X374371Y191905D01*
X374427Y191928D01*
X374507Y191986D01*
X374592Y192036D01*
X374668Y192102D01*
X374684Y192114D01*
X374692Y192124D01*
X374713Y192142D01*
X378338Y195767D01*
X378380Y195822D01*
X378431Y195870D01*
X378477Y195947D01*
X378533Y196018D01*
X378560Y196082D01*
X378597Y196142D01*
X378623Y196227D01*
X378659Y196310D01*
X378670Y196379D01*
X378690Y196446D01*
X378695Y196535D01*
X378709Y196624D01*
X378702Y196694D01*
X378705Y196763D01*
X378687Y196851D01*
X378679Y196941D01*
X378655Y197006D01*
X378641Y197075D01*
X378602Y197155D01*
X378571Y197240D01*
X378532Y197298D01*
X378501Y197360D01*
X378443Y197429D01*
X378393Y197503D01*
X378340Y197549D01*
X378295Y197602D01*
X378222Y197654D01*
X378154Y197714D01*
X378092Y197745D01*
X378035Y197785D01*
X377951Y197817D01*
X377871Y197858D01*
X377803Y197873D01*
X377738Y197898D01*
X377648Y197908D01*
X377561Y197928D01*
X377491Y197926D01*
X377422Y197933D01*
X377333Y197921D01*
X377243Y197918D01*
X377176Y197899D01*
X377107Y197889D01*
X376954Y197837D01*
X374638Y196877D01*
X372122Y196877D01*
X369798Y197840D01*
X368621Y199018D01*
X368543Y199078D01*
X368470Y199146D01*
X368417Y199175D01*
X368370Y199212D01*
X368279Y199252D01*
X368192Y199300D01*
X368133Y199315D01*
X368078Y199339D01*
X367980Y199354D01*
X367884Y199379D01*
X367784Y199385D01*
X367764Y199389D01*
X367751Y199387D01*
X367723Y199389D01*
X306904Y199389D01*
X306806Y199377D01*
X306707Y199374D01*
X306649Y199357D01*
X306589Y199349D01*
X306497Y199313D01*
X306401Y199285D01*
X306349Y199255D01*
X306293Y199232D01*
X306213Y199174D01*
X306128Y199124D01*
X306052Y199058D01*
X306036Y199046D01*
X306028Y199036D01*
X306007Y199018D01*
X298822Y191833D01*
X298762Y191755D01*
X298694Y191683D01*
X298665Y191630D01*
X298628Y191582D01*
X298588Y191491D01*
X298540Y191404D01*
X298525Y191346D01*
X298501Y191290D01*
X298486Y191192D01*
X298461Y191096D01*
X298455Y190996D01*
X298451Y190976D01*
X298453Y190964D01*
X298451Y190936D01*
X298451Y117417D01*
X298463Y117319D01*
X298466Y117219D01*
X298483Y117161D01*
X298491Y117101D01*
X298527Y117009D01*
X298555Y116914D01*
X298585Y116862D01*
X298608Y116805D01*
X298666Y116725D01*
X298716Y116640D01*
X298782Y116565D01*
X298794Y116548D01*
X298804Y116540D01*
X298822Y116519D01*
X300000Y115342D01*
X300963Y113018D01*
X300963Y110502D01*
X300000Y108178D01*
X298222Y106400D01*
X295898Y105437D01*
X293382Y105437D01*
G37*
%LPD*%
%LPC*%
G36*
X118577Y74675D02*
X118577Y74675D01*
X115216Y76067D01*
X112643Y78640D01*
X111251Y82001D01*
X111251Y85639D01*
X112643Y89000D01*
X113651Y90007D01*
X113735Y90117D01*
X113825Y90224D01*
X113833Y90243D01*
X113846Y90259D01*
X113901Y90386D01*
X113960Y90512D01*
X113964Y90532D01*
X113972Y90550D01*
X113994Y90688D01*
X114020Y90824D01*
X114019Y90844D01*
X114022Y90864D01*
X114009Y91004D01*
X114000Y91142D01*
X113994Y91161D01*
X113992Y91181D01*
X113945Y91312D01*
X113902Y91444D01*
X113891Y91461D01*
X113884Y91480D01*
X113806Y91595D01*
X113732Y91713D01*
X113717Y91727D01*
X113706Y91744D01*
X113602Y91835D01*
X113500Y91931D01*
X113483Y91941D01*
X113467Y91954D01*
X113344Y92017D01*
X113222Y92084D01*
X113202Y92089D01*
X113184Y92099D01*
X113048Y92129D01*
X112914Y92164D01*
X112886Y92166D01*
X112874Y92168D01*
X112853Y92168D01*
X112753Y92174D01*
X56266Y92174D01*
X56148Y92159D01*
X56029Y92152D01*
X55991Y92139D01*
X55951Y92134D01*
X55840Y92090D01*
X55727Y92054D01*
X55693Y92032D01*
X55655Y92017D01*
X55559Y91947D01*
X55458Y91884D01*
X55430Y91854D01*
X55398Y91830D01*
X55322Y91739D01*
X55240Y91652D01*
X55221Y91616D01*
X55195Y91585D01*
X55144Y91478D01*
X55087Y91373D01*
X55077Y91334D01*
X55059Y91298D01*
X55037Y91181D01*
X55007Y91065D01*
X55003Y91005D01*
X55000Y90985D01*
X55001Y90965D01*
X54997Y90905D01*
X54997Y88587D01*
X53509Y87099D01*
X34904Y87099D01*
X33416Y88587D01*
X33416Y107192D01*
X34904Y108680D01*
X53509Y108680D01*
X54997Y107192D01*
X54997Y104875D01*
X55012Y104757D01*
X55019Y104638D01*
X55032Y104599D01*
X55037Y104559D01*
X55081Y104448D01*
X55117Y104335D01*
X55139Y104301D01*
X55154Y104264D01*
X55224Y104167D01*
X55288Y104067D01*
X55317Y104039D01*
X55341Y104006D01*
X55432Y103930D01*
X55519Y103849D01*
X55555Y103829D01*
X55586Y103803D01*
X55693Y103753D01*
X55798Y103695D01*
X55837Y103685D01*
X55873Y103668D01*
X55990Y103645D01*
X56106Y103616D01*
X56166Y103612D01*
X56186Y103608D01*
X56206Y103609D01*
X56266Y103605D01*
X110924Y103605D01*
X110973Y103612D01*
X111023Y103609D01*
X111130Y103632D01*
X111239Y103645D01*
X111286Y103664D01*
X111334Y103674D01*
X111433Y103722D01*
X111535Y103762D01*
X111575Y103791D01*
X111620Y103813D01*
X111704Y103885D01*
X111792Y103949D01*
X111824Y103988D01*
X111862Y104020D01*
X111925Y104109D01*
X111995Y104194D01*
X112016Y104239D01*
X112045Y104280D01*
X112084Y104383D01*
X112131Y104482D01*
X112140Y104531D01*
X112158Y104577D01*
X112170Y104687D01*
X112191Y104794D01*
X112187Y104844D01*
X112193Y104893D01*
X112178Y105002D01*
X112171Y105112D01*
X112155Y105159D01*
X112149Y105208D01*
X112096Y105360D01*
X111251Y107401D01*
X111251Y111039D01*
X112643Y114400D01*
X115216Y116973D01*
X118577Y118365D01*
X135423Y118365D01*
X138784Y116973D01*
X141357Y114400D01*
X142749Y111039D01*
X142749Y107401D01*
X141904Y105360D01*
X141890Y105312D01*
X141869Y105268D01*
X141849Y105160D01*
X141820Y105054D01*
X141819Y105004D01*
X141809Y104955D01*
X141816Y104846D01*
X141815Y104736D01*
X141826Y104687D01*
X141829Y104638D01*
X141863Y104533D01*
X141889Y104426D01*
X141912Y104383D01*
X141927Y104335D01*
X141986Y104242D01*
X142037Y104145D01*
X142071Y104109D01*
X142097Y104067D01*
X142177Y103991D01*
X142251Y103910D01*
X142293Y103883D01*
X142329Y103849D01*
X142425Y103796D01*
X142517Y103735D01*
X142564Y103719D01*
X142608Y103695D01*
X142714Y103668D01*
X142818Y103632D01*
X142867Y103628D01*
X142915Y103616D01*
X143076Y103605D01*
X155956Y103605D01*
X156055Y103618D01*
X156154Y103621D01*
X156212Y103638D01*
X156272Y103645D01*
X156364Y103682D01*
X156459Y103709D01*
X156511Y103740D01*
X156568Y103762D01*
X156648Y103820D01*
X156733Y103871D01*
X156809Y103937D01*
X156825Y103949D01*
X156833Y103959D01*
X156854Y103977D01*
X161553Y108676D01*
X161613Y108754D01*
X161681Y108826D01*
X161710Y108879D01*
X161747Y108927D01*
X161787Y109018D01*
X161835Y109105D01*
X161850Y109163D01*
X161874Y109219D01*
X161889Y109317D01*
X161914Y109413D01*
X161920Y109513D01*
X161924Y109533D01*
X161922Y109545D01*
X161924Y109573D01*
X161924Y127226D01*
X162794Y129327D01*
X172933Y139466D01*
X175034Y140336D01*
X188853Y140336D01*
X188952Y140348D01*
X189051Y140351D01*
X189109Y140368D01*
X189169Y140376D01*
X189261Y140412D01*
X189356Y140440D01*
X189408Y140470D01*
X189465Y140493D01*
X189545Y140551D01*
X189630Y140601D01*
X189705Y140667D01*
X189722Y140679D01*
X189730Y140689D01*
X189751Y140707D01*
X191416Y142373D01*
X194777Y143765D01*
X211623Y143765D01*
X214984Y142373D01*
X217557Y139800D01*
X218949Y136439D01*
X218949Y132801D01*
X217557Y129440D01*
X214984Y126867D01*
X211623Y125475D01*
X194777Y125475D01*
X191416Y126867D01*
X189751Y128533D01*
X189673Y128593D01*
X189601Y128661D01*
X189548Y128690D01*
X189500Y128727D01*
X189409Y128767D01*
X189322Y128815D01*
X189263Y128830D01*
X189208Y128854D01*
X189110Y128869D01*
X189014Y128894D01*
X188914Y128900D01*
X188894Y128904D01*
X188881Y128902D01*
X188853Y128904D01*
X179064Y128904D01*
X178966Y128892D01*
X178867Y128889D01*
X178809Y128872D01*
X178749Y128864D01*
X178656Y128828D01*
X178561Y128800D01*
X178509Y128770D01*
X178453Y128747D01*
X178373Y128689D01*
X178287Y128639D01*
X178212Y128573D01*
X178196Y128561D01*
X178188Y128551D01*
X178167Y128533D01*
X173727Y124093D01*
X173667Y124015D01*
X173599Y123943D01*
X173570Y123890D01*
X173533Y123842D01*
X173493Y123751D01*
X173445Y123665D01*
X173430Y123606D01*
X173406Y123550D01*
X173391Y123452D01*
X173366Y123357D01*
X173360Y123257D01*
X173356Y123236D01*
X173358Y123224D01*
X173356Y123196D01*
X173356Y105543D01*
X172486Y103442D01*
X162087Y93044D01*
X159987Y92174D01*
X141247Y92174D01*
X141109Y92157D01*
X140970Y92144D01*
X140951Y92137D01*
X140931Y92134D01*
X140802Y92083D01*
X140671Y92036D01*
X140654Y92025D01*
X140636Y92017D01*
X140523Y91936D01*
X140408Y91857D01*
X140395Y91842D01*
X140378Y91830D01*
X140289Y91723D01*
X140198Y91619D01*
X140188Y91601D01*
X140175Y91585D01*
X140116Y91460D01*
X140053Y91336D01*
X140049Y91316D01*
X140040Y91298D01*
X140014Y91161D01*
X139983Y91025D01*
X139984Y91005D01*
X139980Y90985D01*
X139989Y90847D01*
X139993Y90708D01*
X139999Y90688D01*
X140000Y90668D01*
X140043Y90536D01*
X140081Y90402D01*
X140092Y90385D01*
X140098Y90365D01*
X140172Y90248D01*
X140243Y90128D01*
X140261Y90107D01*
X140268Y90097D01*
X140283Y90082D01*
X140349Y90007D01*
X141357Y89000D01*
X142749Y85639D01*
X142749Y82001D01*
X141357Y78640D01*
X138784Y76067D01*
X135423Y74675D01*
X118577Y74675D01*
G37*
%LPD*%
%LPC*%
G36*
X118577Y125475D02*
X118577Y125475D01*
X115216Y126867D01*
X112643Y129440D01*
X111251Y132801D01*
X111251Y136439D01*
X112643Y139800D01*
X112851Y140007D01*
X112936Y140117D01*
X113025Y140224D01*
X113033Y140243D01*
X113046Y140259D01*
X113101Y140386D01*
X113160Y140512D01*
X113164Y140532D01*
X113172Y140550D01*
X113194Y140688D01*
X113220Y140824D01*
X113219Y140845D01*
X113222Y140864D01*
X113209Y141003D01*
X113200Y141142D01*
X113194Y141161D01*
X113192Y141181D01*
X113145Y141312D01*
X113102Y141444D01*
X113091Y141461D01*
X113084Y141480D01*
X113006Y141596D01*
X112932Y141713D01*
X112917Y141727D01*
X112906Y141743D01*
X112802Y141836D01*
X112700Y141931D01*
X112683Y141941D01*
X112667Y141954D01*
X112543Y142017D01*
X112422Y142084D01*
X112402Y142089D01*
X112384Y142099D01*
X112248Y142129D01*
X112114Y142164D01*
X112086Y142166D01*
X112074Y142168D01*
X112053Y142168D01*
X111953Y142174D01*
X54277Y142174D01*
X54179Y142162D01*
X54080Y142159D01*
X54021Y142142D01*
X53961Y142134D01*
X53869Y142098D01*
X53774Y142070D01*
X53722Y142039D01*
X53666Y142017D01*
X53585Y141959D01*
X53500Y141909D01*
X53425Y141842D01*
X53408Y141830D01*
X53405Y141826D01*
X53402Y141824D01*
X53396Y141817D01*
X53379Y141802D01*
X50319Y138742D01*
X46353Y137099D01*
X42060Y137099D01*
X38094Y138742D01*
X35058Y141777D01*
X33416Y145743D01*
X33416Y150036D01*
X35058Y154002D01*
X38094Y157038D01*
X42060Y158680D01*
X46353Y158680D01*
X50319Y157038D01*
X53379Y153977D01*
X53458Y153917D01*
X53530Y153849D01*
X53583Y153819D01*
X53631Y153782D01*
X53721Y153743D01*
X53808Y153695D01*
X53867Y153680D01*
X53922Y153656D01*
X54020Y153640D01*
X54116Y153616D01*
X54216Y153609D01*
X54236Y153606D01*
X54249Y153607D01*
X54277Y153605D01*
X111330Y153605D01*
X111428Y153618D01*
X111528Y153621D01*
X111586Y153638D01*
X111645Y153645D01*
X111738Y153682D01*
X111833Y153710D01*
X111885Y153740D01*
X111941Y153762D01*
X112021Y153821D01*
X112107Y153871D01*
X112150Y153914D01*
X112198Y153949D01*
X112262Y154026D01*
X112332Y154096D01*
X112363Y154148D01*
X112401Y154194D01*
X112444Y154284D01*
X112494Y154370D01*
X112511Y154428D01*
X112537Y154482D01*
X112555Y154579D01*
X112583Y154675D01*
X112585Y154735D01*
X112596Y154794D01*
X112590Y154893D01*
X112594Y154993D01*
X112580Y155052D01*
X112577Y155112D01*
X112546Y155206D01*
X112525Y155303D01*
X112485Y155395D01*
X112479Y155414D01*
X112472Y155425D01*
X112461Y155451D01*
X111921Y156510D01*
X111476Y157879D01*
X111459Y157989D01*
X126238Y157989D01*
X126356Y158004D01*
X126475Y158011D01*
X126513Y158023D01*
X126553Y158029D01*
X126664Y158072D01*
X126777Y158109D01*
X126811Y158131D01*
X126849Y158146D01*
X126945Y158215D01*
X126997Y158248D01*
X127015Y158232D01*
X127050Y158212D01*
X127082Y158187D01*
X127189Y158136D01*
X127294Y158078D01*
X127333Y158068D01*
X127369Y158051D01*
X127486Y158029D01*
X127602Y157999D01*
X127662Y157995D01*
X127682Y157991D01*
X127702Y157993D01*
X127762Y157989D01*
X142541Y157989D01*
X142524Y157879D01*
X142079Y156510D01*
X141539Y155451D01*
X141506Y155357D01*
X141463Y155268D01*
X141452Y155209D01*
X141432Y155152D01*
X141422Y155053D01*
X141404Y154955D01*
X141407Y154895D01*
X141402Y154835D01*
X141417Y154737D01*
X141423Y154638D01*
X141442Y154581D01*
X141451Y154521D01*
X141491Y154430D01*
X141521Y154335D01*
X141554Y154284D01*
X141577Y154229D01*
X141638Y154151D01*
X141691Y154067D01*
X141735Y154025D01*
X141772Y153978D01*
X141851Y153917D01*
X141923Y153849D01*
X141976Y153820D01*
X142023Y153783D01*
X142115Y153743D01*
X142202Y153695D01*
X142260Y153680D01*
X142315Y153656D01*
X142413Y153640D01*
X142510Y153616D01*
X142609Y153609D01*
X142629Y153606D01*
X142642Y153607D01*
X142670Y153605D01*
X152616Y153605D01*
X152715Y153618D01*
X152814Y153621D01*
X152872Y153638D01*
X152932Y153645D01*
X153024Y153682D01*
X153119Y153709D01*
X153171Y153740D01*
X153228Y153762D01*
X153308Y153820D01*
X153393Y153871D01*
X153469Y153937D01*
X153485Y153949D01*
X153493Y153959D01*
X153514Y153977D01*
X159013Y159476D01*
X159073Y159554D01*
X159141Y159626D01*
X159170Y159679D01*
X159207Y159727D01*
X159247Y159818D01*
X159295Y159905D01*
X159310Y159963D01*
X159334Y160019D01*
X159349Y160117D01*
X159374Y160213D01*
X159380Y160313D01*
X159384Y160333D01*
X159382Y160345D01*
X159384Y160373D01*
X159384Y199257D01*
X160254Y201358D01*
X162041Y203144D01*
X174562Y215666D01*
X176663Y216536D01*
X188853Y216536D01*
X188952Y216548D01*
X189051Y216551D01*
X189109Y216568D01*
X189169Y216576D01*
X189261Y216612D01*
X189356Y216640D01*
X189408Y216670D01*
X189465Y216693D01*
X189545Y216751D01*
X189630Y216801D01*
X189705Y216867D01*
X189722Y216879D01*
X189730Y216889D01*
X189751Y216907D01*
X191416Y218573D01*
X194777Y219965D01*
X211623Y219965D01*
X214984Y218573D01*
X217557Y216000D01*
X218949Y212639D01*
X218949Y209001D01*
X217557Y205640D01*
X214984Y203067D01*
X211623Y201675D01*
X194777Y201675D01*
X191416Y203067D01*
X189751Y204733D01*
X189673Y204793D01*
X189601Y204861D01*
X189548Y204890D01*
X189500Y204927D01*
X189409Y204967D01*
X189322Y205015D01*
X189263Y205030D01*
X189208Y205054D01*
X189110Y205069D01*
X189014Y205094D01*
X188914Y205100D01*
X188894Y205104D01*
X188881Y205102D01*
X188853Y205104D01*
X180693Y205104D01*
X180595Y205092D01*
X180496Y205089D01*
X180438Y205072D01*
X180378Y205064D01*
X180286Y205028D01*
X180191Y205000D01*
X180138Y204970D01*
X180082Y204947D01*
X180002Y204889D01*
X179917Y204839D01*
X179841Y204773D01*
X179825Y204761D01*
X179817Y204751D01*
X179796Y204733D01*
X171187Y196124D01*
X171127Y196046D01*
X171059Y195974D01*
X171030Y195921D01*
X170993Y195873D01*
X170953Y195782D01*
X170905Y195695D01*
X170890Y195637D01*
X170866Y195581D01*
X170851Y195483D01*
X170826Y195387D01*
X170820Y195287D01*
X170816Y195267D01*
X170818Y195255D01*
X170816Y195227D01*
X170816Y156343D01*
X169946Y154242D01*
X158747Y143044D01*
X156647Y142174D01*
X142047Y142174D01*
X141909Y142157D01*
X141770Y142144D01*
X141751Y142137D01*
X141731Y142134D01*
X141602Y142083D01*
X141471Y142036D01*
X141454Y142025D01*
X141436Y142017D01*
X141323Y141935D01*
X141208Y141857D01*
X141195Y141842D01*
X141178Y141830D01*
X141089Y141723D01*
X140998Y141619D01*
X140988Y141601D01*
X140975Y141585D01*
X140916Y141460D01*
X140853Y141336D01*
X140848Y141316D01*
X140840Y141298D01*
X140814Y141161D01*
X140783Y141025D01*
X140784Y141005D01*
X140780Y140985D01*
X140789Y140846D01*
X140793Y140707D01*
X140799Y140688D01*
X140800Y140668D01*
X140843Y140536D01*
X140881Y140402D01*
X140892Y140384D01*
X140898Y140365D01*
X140972Y140248D01*
X141043Y140128D01*
X141061Y140107D01*
X141068Y140097D01*
X141074Y140091D01*
X141074Y140090D01*
X141085Y140081D01*
X141149Y140007D01*
X141357Y139800D01*
X142749Y136439D01*
X142749Y132801D01*
X141357Y129440D01*
X138784Y126867D01*
X135423Y125475D01*
X118577Y125475D01*
G37*
%LPD*%
%LPC*%
G36*
X242582Y168937D02*
X242582Y168937D01*
X240258Y169900D01*
X239081Y171078D01*
X239003Y171138D01*
X238930Y171206D01*
X238877Y171235D01*
X238830Y171272D01*
X238739Y171312D01*
X238652Y171360D01*
X238593Y171375D01*
X238538Y171399D01*
X238440Y171414D01*
X238344Y171439D01*
X238244Y171445D01*
X238224Y171449D01*
X238211Y171447D01*
X238183Y171449D01*
X237182Y171449D01*
X232409Y176222D01*
X232409Y236656D01*
X232397Y236754D01*
X232394Y236853D01*
X232377Y236911D01*
X232369Y236971D01*
X232333Y237063D01*
X232305Y237159D01*
X232275Y237211D01*
X232252Y237267D01*
X232194Y237347D01*
X232144Y237432D01*
X232078Y237508D01*
X232066Y237524D01*
X232056Y237532D01*
X232038Y237553D01*
X224853Y244738D01*
X224775Y244798D01*
X224703Y244866D01*
X224650Y244895D01*
X224602Y244932D01*
X224511Y244972D01*
X224424Y245020D01*
X224366Y245035D01*
X224310Y245059D01*
X224212Y245074D01*
X224116Y245099D01*
X224016Y245105D01*
X223996Y245109D01*
X223984Y245107D01*
X223956Y245109D01*
X216912Y245109D01*
X216774Y245092D01*
X216635Y245079D01*
X216616Y245072D01*
X216596Y245069D01*
X216467Y245018D01*
X216336Y244971D01*
X216319Y244960D01*
X216300Y244952D01*
X216188Y244871D01*
X216073Y244793D01*
X216059Y244777D01*
X216043Y244766D01*
X215954Y244658D01*
X215862Y244554D01*
X215853Y244536D01*
X215840Y244521D01*
X215781Y244395D01*
X215718Y244271D01*
X215713Y244251D01*
X215705Y244233D01*
X215679Y244096D01*
X215648Y243961D01*
X215649Y243940D01*
X215645Y243921D01*
X215653Y243782D01*
X215658Y243643D01*
X215663Y243623D01*
X215665Y243603D01*
X215707Y243471D01*
X215746Y243337D01*
X215756Y243320D01*
X215763Y243301D01*
X215837Y243183D01*
X215908Y243063D01*
X215926Y243042D01*
X215933Y243032D01*
X215948Y243018D01*
X216014Y242943D01*
X217557Y241400D01*
X218949Y238039D01*
X218949Y234401D01*
X217557Y231040D01*
X214984Y228467D01*
X211623Y227075D01*
X194777Y227075D01*
X191416Y228467D01*
X188843Y231040D01*
X187451Y234401D01*
X187451Y238039D01*
X188843Y241400D01*
X190386Y242943D01*
X190471Y243052D01*
X190560Y243159D01*
X190568Y243178D01*
X190581Y243194D01*
X190636Y243322D01*
X190695Y243447D01*
X190699Y243467D01*
X190707Y243486D01*
X190729Y243624D01*
X190755Y243760D01*
X190754Y243780D01*
X190757Y243800D01*
X190744Y243939D01*
X190735Y244077D01*
X190729Y244096D01*
X190727Y244116D01*
X190680Y244247D01*
X190637Y244379D01*
X190627Y244397D01*
X190620Y244416D01*
X190542Y244531D01*
X190467Y244648D01*
X190452Y244662D01*
X190441Y244679D01*
X190337Y244771D01*
X190236Y244866D01*
X190218Y244876D01*
X190203Y244889D01*
X190079Y244953D01*
X189957Y245020D01*
X189938Y245025D01*
X189919Y245034D01*
X189784Y245064D01*
X189649Y245099D01*
X189621Y245101D01*
X189609Y245104D01*
X189589Y245103D01*
X189488Y245109D01*
X168602Y245109D01*
X156273Y257438D01*
X156195Y257498D01*
X156123Y257566D01*
X156070Y257595D01*
X156022Y257632D01*
X155931Y257672D01*
X155844Y257720D01*
X155786Y257735D01*
X155730Y257759D01*
X155632Y257774D01*
X155536Y257799D01*
X155436Y257805D01*
X155416Y257809D01*
X155404Y257807D01*
X155376Y257809D01*
X142772Y257809D01*
X142742Y257806D01*
X142713Y257808D01*
X142585Y257786D01*
X142456Y257769D01*
X142429Y257759D01*
X142400Y257754D01*
X142281Y257700D01*
X142161Y257652D01*
X142137Y257635D01*
X142110Y257623D01*
X142008Y257542D01*
X141903Y257466D01*
X141884Y257443D01*
X141861Y257424D01*
X141783Y257321D01*
X141700Y257221D01*
X141688Y257194D01*
X141670Y257170D01*
X141599Y257026D01*
X141357Y256440D01*
X138784Y253867D01*
X135423Y252475D01*
X118577Y252475D01*
X115216Y253867D01*
X112643Y256440D01*
X111251Y259801D01*
X111251Y263439D01*
X112643Y266800D01*
X115216Y269373D01*
X118577Y270765D01*
X135423Y270765D01*
X138784Y269373D01*
X141357Y266800D01*
X141599Y266214D01*
X141614Y266189D01*
X141623Y266161D01*
X141692Y266051D01*
X141757Y265938D01*
X141777Y265917D01*
X141793Y265892D01*
X141888Y265803D01*
X141978Y265710D01*
X142003Y265694D01*
X142025Y265674D01*
X142138Y265611D01*
X142249Y265543D01*
X142277Y265535D01*
X142303Y265520D01*
X142429Y265488D01*
X142553Y265450D01*
X142583Y265448D01*
X142611Y265441D01*
X142772Y265431D01*
X159058Y265431D01*
X171387Y253102D01*
X171465Y253042D01*
X171537Y252974D01*
X171590Y252945D01*
X171638Y252908D01*
X171729Y252868D01*
X171816Y252820D01*
X171874Y252805D01*
X171930Y252781D01*
X172028Y252766D01*
X172124Y252741D01*
X172224Y252735D01*
X172244Y252731D01*
X172256Y252733D01*
X172284Y252731D01*
X189488Y252731D01*
X189626Y252748D01*
X189765Y252761D01*
X189784Y252768D01*
X189804Y252771D01*
X189933Y252822D01*
X190064Y252869D01*
X190081Y252880D01*
X190100Y252888D01*
X190212Y252969D01*
X190327Y253047D01*
X190341Y253063D01*
X190357Y253074D01*
X190446Y253182D01*
X190538Y253286D01*
X190547Y253304D01*
X190560Y253319D01*
X190619Y253445D01*
X190682Y253569D01*
X190687Y253589D01*
X190695Y253607D01*
X190721Y253744D01*
X190752Y253879D01*
X190751Y253900D01*
X190755Y253919D01*
X190747Y254058D01*
X190742Y254197D01*
X190737Y254217D01*
X190735Y254237D01*
X190693Y254369D01*
X190654Y254503D01*
X190644Y254520D01*
X190637Y254539D01*
X190563Y254657D01*
X190492Y254777D01*
X190474Y254798D01*
X190467Y254808D01*
X190452Y254822D01*
X190386Y254897D01*
X188843Y256440D01*
X187451Y259801D01*
X187451Y263439D01*
X188843Y266800D01*
X191416Y269373D01*
X194777Y270765D01*
X211623Y270765D01*
X214984Y269373D01*
X217557Y266800D01*
X218949Y263439D01*
X218949Y259801D01*
X217557Y256440D01*
X216014Y254897D01*
X215929Y254788D01*
X215840Y254681D01*
X215832Y254662D01*
X215819Y254646D01*
X215764Y254518D01*
X215705Y254393D01*
X215701Y254373D01*
X215693Y254354D01*
X215671Y254216D01*
X215645Y254080D01*
X215646Y254060D01*
X215643Y254040D01*
X215656Y253901D01*
X215665Y253763D01*
X215671Y253744D01*
X215673Y253724D01*
X215720Y253592D01*
X215763Y253461D01*
X215773Y253443D01*
X215780Y253424D01*
X215858Y253309D01*
X215933Y253192D01*
X215948Y253178D01*
X215959Y253161D01*
X216063Y253069D01*
X216164Y252974D01*
X216182Y252964D01*
X216197Y252951D01*
X216321Y252887D01*
X216443Y252820D01*
X216462Y252815D01*
X216481Y252806D01*
X216616Y252776D01*
X216751Y252741D01*
X216779Y252739D01*
X216791Y252736D01*
X216811Y252737D01*
X216912Y252731D01*
X227638Y252731D01*
X240031Y240338D01*
X240031Y182425D01*
X240037Y182376D01*
X240035Y182326D01*
X240057Y182219D01*
X240071Y182110D01*
X240089Y182064D01*
X240099Y182015D01*
X240147Y181916D01*
X240188Y181814D01*
X240217Y181774D01*
X240239Y181729D01*
X240310Y181646D01*
X240374Y181557D01*
X240413Y181525D01*
X240445Y181487D01*
X240535Y181424D01*
X240619Y181354D01*
X240664Y181333D01*
X240705Y181304D01*
X240808Y181265D01*
X240907Y181218D01*
X240956Y181209D01*
X241002Y181192D01*
X241112Y181179D01*
X241219Y181159D01*
X241269Y181162D01*
X241318Y181156D01*
X241427Y181172D01*
X241537Y181178D01*
X241584Y181194D01*
X241633Y181201D01*
X241786Y181253D01*
X242582Y181583D01*
X245098Y181583D01*
X247422Y180620D01*
X249200Y178842D01*
X250163Y176518D01*
X250163Y174002D01*
X249200Y171678D01*
X247422Y169900D01*
X245098Y168937D01*
X242582Y168937D01*
G37*
%LPD*%
%LPC*%
G36*
X534348Y240918D02*
X534348Y240918D01*
X531407Y242136D01*
X510137Y263407D01*
X510059Y263467D01*
X509987Y263535D01*
X509934Y263564D01*
X509886Y263601D01*
X509795Y263641D01*
X509708Y263689D01*
X509650Y263704D01*
X509594Y263728D01*
X509496Y263743D01*
X509400Y263768D01*
X509300Y263774D01*
X509280Y263778D01*
X509268Y263776D01*
X509240Y263778D01*
X445448Y263778D01*
X442507Y264996D01*
X440256Y267247D01*
X439038Y270188D01*
X439038Y273372D01*
X440256Y276313D01*
X442507Y278564D01*
X445448Y279782D01*
X514672Y279782D01*
X517613Y278564D01*
X542724Y253453D01*
X543942Y250512D01*
X543942Y247328D01*
X542724Y244387D01*
X540473Y242136D01*
X537532Y240918D01*
X534348Y240918D01*
G37*
%LPD*%
%LPC*%
G36*
X722642Y273077D02*
X722642Y273077D01*
X720318Y274040D01*
X719141Y275218D01*
X719063Y275278D01*
X718990Y275346D01*
X718937Y275375D01*
X718890Y275412D01*
X718799Y275452D01*
X718712Y275500D01*
X718653Y275515D01*
X718598Y275539D01*
X718500Y275554D01*
X718404Y275579D01*
X718304Y275585D01*
X718284Y275589D01*
X718271Y275587D01*
X718243Y275589D01*
X602942Y275589D01*
X592911Y285620D01*
X592911Y307949D01*
X592896Y308067D01*
X592888Y308186D01*
X592876Y308224D01*
X592871Y308264D01*
X592827Y308375D01*
X592790Y308488D01*
X592769Y308522D01*
X592754Y308560D01*
X592684Y308656D01*
X592620Y308757D01*
X592591Y308784D01*
X592567Y308817D01*
X592475Y308893D01*
X592389Y308975D01*
X592353Y308994D01*
X592322Y309020D01*
X592214Y309071D01*
X592110Y309128D01*
X592071Y309138D01*
X592034Y309156D01*
X591917Y309178D01*
X591802Y309208D01*
X591742Y309211D01*
X591722Y309215D01*
X591702Y309214D01*
X591641Y309218D01*
X588669Y309218D01*
X587181Y310706D01*
X587181Y326811D01*
X588669Y328299D01*
X604774Y328299D01*
X606262Y326811D01*
X606262Y310706D01*
X604774Y309218D01*
X601801Y309218D01*
X601683Y309203D01*
X601564Y309196D01*
X601526Y309183D01*
X601486Y309178D01*
X601375Y309134D01*
X601262Y309098D01*
X601228Y309076D01*
X601190Y309061D01*
X601094Y308991D01*
X600993Y308927D01*
X600966Y308898D01*
X600933Y308874D01*
X600857Y308782D01*
X600775Y308696D01*
X600756Y308660D01*
X600730Y308629D01*
X600679Y308522D01*
X600622Y308417D01*
X600612Y308378D01*
X600594Y308341D01*
X600572Y308225D01*
X600542Y308109D01*
X600539Y308049D01*
X600535Y308029D01*
X600536Y308009D01*
X600532Y307949D01*
X600532Y289303D01*
X600545Y289205D01*
X600548Y289106D01*
X600564Y289047D01*
X600572Y288987D01*
X600608Y288895D01*
X600636Y288800D01*
X600667Y288748D01*
X600689Y288692D01*
X600747Y288612D01*
X600797Y288526D01*
X600864Y288451D01*
X600876Y288434D01*
X600885Y288426D01*
X600904Y288405D01*
X605727Y283582D01*
X605805Y283522D01*
X605877Y283454D01*
X605930Y283425D01*
X605978Y283388D01*
X606069Y283348D01*
X606156Y283300D01*
X606214Y283285D01*
X606270Y283261D01*
X606368Y283246D01*
X606464Y283221D01*
X606564Y283215D01*
X606584Y283211D01*
X606596Y283213D01*
X606624Y283211D01*
X718243Y283211D01*
X718341Y283223D01*
X718441Y283226D01*
X718499Y283243D01*
X718559Y283251D01*
X718651Y283287D01*
X718746Y283315D01*
X718798Y283345D01*
X718855Y283368D01*
X718935Y283426D01*
X719020Y283476D01*
X719095Y283542D01*
X719112Y283554D01*
X719120Y283564D01*
X719141Y283582D01*
X720318Y284760D01*
X722642Y285723D01*
X725158Y285723D01*
X727482Y284760D01*
X729260Y282982D01*
X730223Y280658D01*
X730223Y278142D01*
X729260Y275818D01*
X727482Y274040D01*
X725158Y273077D01*
X722642Y273077D01*
G37*
%LPD*%
%LPC*%
G36*
X93622Y338986D02*
X93622Y338986D01*
X86580Y341903D01*
X81190Y347293D01*
X78272Y354335D01*
X78272Y361958D01*
X81190Y369000D01*
X86580Y374390D01*
X93622Y377307D01*
X101245Y377307D01*
X108287Y374390D01*
X113677Y369000D01*
X116594Y361958D01*
X116594Y354335D01*
X113677Y347293D01*
X108287Y341903D01*
X101245Y338986D01*
X93622Y338986D01*
G37*
%LPD*%
%LPC*%
G36*
X48821Y339986D02*
X48821Y339986D01*
X42146Y342750D01*
X37037Y347859D01*
X34272Y354534D01*
X34272Y361759D01*
X37037Y368434D01*
X42146Y373542D01*
X48821Y376307D01*
X56046Y376307D01*
X62720Y373542D01*
X67829Y368434D01*
X70594Y361759D01*
X70594Y354534D01*
X67829Y347859D01*
X62720Y342750D01*
X56046Y339986D01*
X48821Y339986D01*
G37*
%LPD*%
%LPC*%
G36*
X687082Y290857D02*
X687082Y290857D01*
X684758Y291820D01*
X683581Y292998D01*
X683503Y293058D01*
X683430Y293126D01*
X683377Y293155D01*
X683330Y293192D01*
X683239Y293232D01*
X683152Y293280D01*
X683093Y293295D01*
X683038Y293319D01*
X682940Y293334D01*
X682844Y293359D01*
X682744Y293365D01*
X682724Y293369D01*
X682711Y293367D01*
X682683Y293369D01*
X625802Y293369D01*
X618311Y300860D01*
X618311Y309162D01*
X618307Y309192D01*
X618309Y309221D01*
X618287Y309349D01*
X618271Y309478D01*
X618260Y309505D01*
X618255Y309534D01*
X618201Y309653D01*
X618154Y309773D01*
X618136Y309797D01*
X618124Y309824D01*
X618043Y309926D01*
X617967Y310031D01*
X617944Y310050D01*
X617926Y310073D01*
X617822Y310151D01*
X617722Y310234D01*
X617695Y310246D01*
X617672Y310264D01*
X617527Y310335D01*
X616717Y310670D01*
X614033Y313354D01*
X612581Y316861D01*
X612581Y320656D01*
X614033Y324163D01*
X616717Y326847D01*
X620224Y328299D01*
X624019Y328299D01*
X627526Y326847D01*
X630210Y324163D01*
X631662Y320656D01*
X631662Y316861D01*
X630210Y313354D01*
X627526Y310670D01*
X626716Y310335D01*
X626690Y310320D01*
X626662Y310311D01*
X626552Y310242D01*
X626439Y310177D01*
X626418Y310157D01*
X626393Y310141D01*
X626304Y310046D01*
X626211Y309956D01*
X626196Y309931D01*
X626175Y309909D01*
X626113Y309796D01*
X626045Y309685D01*
X626036Y309657D01*
X626022Y309631D01*
X625989Y309505D01*
X625951Y309381D01*
X625950Y309351D01*
X625942Y309323D01*
X625932Y309162D01*
X625932Y304543D01*
X625945Y304445D01*
X625948Y304346D01*
X625964Y304287D01*
X625972Y304227D01*
X626008Y304135D01*
X626036Y304040D01*
X626067Y303988D01*
X626089Y303932D01*
X626147Y303852D01*
X626197Y303766D01*
X626264Y303691D01*
X626276Y303674D01*
X626285Y303666D01*
X626304Y303645D01*
X628587Y301362D01*
X628665Y301302D01*
X628737Y301234D01*
X628790Y301205D01*
X628838Y301168D01*
X628929Y301128D01*
X629016Y301080D01*
X629074Y301065D01*
X629130Y301041D01*
X629228Y301026D01*
X629324Y301001D01*
X629424Y300995D01*
X629444Y300991D01*
X629456Y300993D01*
X629484Y300991D01*
X682683Y300991D01*
X682781Y301003D01*
X682881Y301006D01*
X682939Y301023D01*
X682999Y301031D01*
X683091Y301067D01*
X683186Y301095D01*
X683238Y301125D01*
X683295Y301148D01*
X683375Y301206D01*
X683460Y301256D01*
X683535Y301322D01*
X683552Y301334D01*
X683560Y301344D01*
X683581Y301362D01*
X684758Y302540D01*
X687082Y303503D01*
X689598Y303503D01*
X691922Y302540D01*
X693700Y300762D01*
X694663Y298438D01*
X694663Y295922D01*
X693700Y293598D01*
X691922Y291820D01*
X689598Y290857D01*
X687082Y290857D01*
G37*
%LPD*%
%LPC*%
G36*
X326402Y82577D02*
X326402Y82577D01*
X324078Y83540D01*
X322300Y85318D01*
X321337Y87642D01*
X321337Y90158D01*
X322300Y92482D01*
X324078Y94260D01*
X326402Y95223D01*
X328918Y95223D01*
X331242Y94260D01*
X332419Y93082D01*
X332497Y93022D01*
X332570Y92954D01*
X332623Y92925D01*
X332670Y92888D01*
X332761Y92848D01*
X332848Y92800D01*
X332907Y92785D01*
X332962Y92761D01*
X333060Y92746D01*
X333156Y92721D01*
X333256Y92715D01*
X333276Y92711D01*
X333289Y92713D01*
X333317Y92711D01*
X343336Y92711D01*
X343434Y92723D01*
X343533Y92726D01*
X343591Y92743D01*
X343651Y92751D01*
X343743Y92787D01*
X343839Y92815D01*
X343891Y92845D01*
X343947Y92868D01*
X344027Y92926D01*
X344112Y92976D01*
X344188Y93042D01*
X344204Y93054D01*
X344212Y93064D01*
X344233Y93082D01*
X356498Y105347D01*
X356558Y105425D01*
X356626Y105497D01*
X356655Y105550D01*
X356692Y105598D01*
X356732Y105689D01*
X356780Y105776D01*
X356795Y105834D01*
X356819Y105890D01*
X356834Y105988D01*
X356859Y106084D01*
X356865Y106184D01*
X356869Y106204D01*
X356867Y106216D01*
X356869Y106244D01*
X356869Y154363D01*
X356857Y154461D01*
X356854Y154561D01*
X356837Y154619D01*
X356829Y154679D01*
X356793Y154771D01*
X356765Y154866D01*
X356735Y154918D01*
X356712Y154975D01*
X356654Y155055D01*
X356604Y155140D01*
X356538Y155215D01*
X356526Y155232D01*
X356516Y155240D01*
X356498Y155261D01*
X355320Y156438D01*
X354357Y158762D01*
X354357Y161278D01*
X355320Y163602D01*
X357098Y165380D01*
X359422Y166343D01*
X361938Y166343D01*
X364262Y165380D01*
X366040Y163602D01*
X367003Y161278D01*
X367003Y158762D01*
X366040Y156438D01*
X364862Y155261D01*
X364802Y155183D01*
X364734Y155110D01*
X364705Y155057D01*
X364668Y155010D01*
X364628Y154919D01*
X364580Y154832D01*
X364565Y154773D01*
X364541Y154718D01*
X364526Y154620D01*
X364501Y154524D01*
X364495Y154424D01*
X364491Y154404D01*
X364493Y154391D01*
X364491Y154363D01*
X364491Y102562D01*
X347018Y85089D01*
X333317Y85089D01*
X333219Y85077D01*
X333119Y85074D01*
X333061Y85057D01*
X333001Y85049D01*
X332909Y85013D01*
X332814Y84985D01*
X332762Y84955D01*
X332705Y84932D01*
X332625Y84874D01*
X332540Y84824D01*
X332465Y84758D01*
X332448Y84746D01*
X332440Y84736D01*
X332419Y84718D01*
X331242Y83540D01*
X328918Y82577D01*
X326402Y82577D01*
G37*
%LPD*%
%LPC*%
G36*
X118577Y201675D02*
X118577Y201675D01*
X115216Y203067D01*
X112643Y205640D01*
X111251Y209001D01*
X111251Y212639D01*
X112643Y216000D01*
X115216Y218573D01*
X118577Y219965D01*
X135423Y219965D01*
X138784Y218573D01*
X141357Y216000D01*
X142749Y212639D01*
X142749Y209001D01*
X141357Y205640D01*
X138784Y203067D01*
X135423Y201675D01*
X118577Y201675D01*
G37*
%LPD*%
%LPC*%
G36*
X118577Y227075D02*
X118577Y227075D01*
X115216Y228467D01*
X112643Y231040D01*
X111251Y234401D01*
X111251Y238039D01*
X112643Y241400D01*
X115216Y243973D01*
X118577Y245365D01*
X135423Y245365D01*
X138784Y243973D01*
X141357Y241400D01*
X142749Y238039D01*
X142749Y234401D01*
X141357Y231040D01*
X138784Y228467D01*
X135423Y227075D01*
X118577Y227075D01*
G37*
%LPD*%
%LPC*%
G36*
X194777Y100075D02*
X194777Y100075D01*
X191416Y101467D01*
X188843Y104040D01*
X187451Y107401D01*
X187451Y111039D01*
X188843Y114400D01*
X191416Y116973D01*
X194777Y118365D01*
X211623Y118365D01*
X214984Y116973D01*
X217557Y114400D01*
X218949Y111039D01*
X218949Y107401D01*
X217557Y104040D01*
X214984Y101467D01*
X211623Y100075D01*
X194777Y100075D01*
G37*
%LPD*%
%LPC*%
G36*
X194777Y74675D02*
X194777Y74675D01*
X191416Y76067D01*
X188843Y78640D01*
X187451Y82001D01*
X187451Y85639D01*
X188843Y89000D01*
X191416Y91573D01*
X194777Y92965D01*
X211623Y92965D01*
X214984Y91573D01*
X217557Y89000D01*
X218949Y85639D01*
X218949Y82001D01*
X217557Y78640D01*
X214984Y76067D01*
X211623Y74675D01*
X194777Y74675D01*
G37*
%LPD*%
%LPC*%
G36*
X372177Y16848D02*
X372177Y16848D01*
X368816Y18240D01*
X366244Y20812D01*
X364852Y24173D01*
X364852Y41019D01*
X366244Y44380D01*
X368816Y46953D01*
X372177Y48345D01*
X375816Y48345D01*
X379177Y46953D01*
X381749Y44380D01*
X383141Y41019D01*
X383141Y24173D01*
X381749Y20812D01*
X379177Y18240D01*
X375816Y16848D01*
X372177Y16848D01*
G37*
%LPD*%
%LPC*%
G36*
X346777Y16848D02*
X346777Y16848D01*
X343416Y18240D01*
X340844Y20812D01*
X339452Y24173D01*
X339452Y41019D01*
X340844Y44380D01*
X343416Y46953D01*
X346777Y48345D01*
X350416Y48345D01*
X353777Y46953D01*
X356349Y44380D01*
X357741Y41019D01*
X357741Y24173D01*
X356349Y20812D01*
X353777Y18240D01*
X350416Y16848D01*
X346777Y16848D01*
G37*
%LPD*%
%LPC*%
G36*
X579874Y127759D02*
X579874Y127759D01*
X576573Y129126D01*
X574046Y131653D01*
X572679Y134954D01*
X572679Y151406D01*
X574046Y154707D01*
X576573Y157234D01*
X579874Y158601D01*
X583446Y158601D01*
X586747Y157234D01*
X589274Y154707D01*
X590641Y151406D01*
X590641Y134954D01*
X589274Y131653D01*
X586747Y129126D01*
X583446Y127759D01*
X579874Y127759D01*
G37*
%LPD*%
%LPC*%
G36*
X706874Y127759D02*
X706874Y127759D01*
X703573Y129126D01*
X701046Y131653D01*
X699679Y134954D01*
X699679Y151406D01*
X701046Y154707D01*
X703573Y157234D01*
X706874Y158601D01*
X710446Y158601D01*
X713747Y157234D01*
X716274Y154707D01*
X717641Y151406D01*
X717641Y134954D01*
X716274Y131653D01*
X713747Y129126D01*
X710446Y127759D01*
X706874Y127759D01*
G37*
%LPD*%
%LPC*%
G36*
X605274Y207159D02*
X605274Y207159D01*
X601973Y208526D01*
X599446Y211053D01*
X598079Y214354D01*
X598079Y230806D01*
X599446Y234107D01*
X601973Y236634D01*
X605274Y238001D01*
X608846Y238001D01*
X612147Y236634D01*
X614674Y234107D01*
X616041Y230806D01*
X616041Y214354D01*
X614674Y211053D01*
X612147Y208526D01*
X608846Y207159D01*
X605274Y207159D01*
G37*
%LPD*%
%LPC*%
G36*
X732274Y127759D02*
X732274Y127759D01*
X728973Y129126D01*
X726446Y131653D01*
X725079Y134954D01*
X725079Y151406D01*
X726446Y154707D01*
X728973Y157234D01*
X732274Y158601D01*
X735846Y158601D01*
X739147Y157234D01*
X741674Y154707D01*
X743041Y151406D01*
X743041Y134954D01*
X741674Y131653D01*
X739147Y129126D01*
X735846Y127759D01*
X732274Y127759D01*
G37*
%LPD*%
%LPC*%
G36*
X656074Y207159D02*
X656074Y207159D01*
X652773Y208526D01*
X650246Y211053D01*
X648879Y214354D01*
X648879Y230806D01*
X650246Y234107D01*
X652773Y236634D01*
X656074Y238001D01*
X659646Y238001D01*
X662947Y236634D01*
X665474Y234107D01*
X666841Y230806D01*
X666841Y214354D01*
X665474Y211053D01*
X662947Y208526D01*
X659646Y207159D01*
X656074Y207159D01*
G37*
%LPD*%
%LPC*%
G36*
X732274Y207159D02*
X732274Y207159D01*
X728973Y208526D01*
X726446Y211053D01*
X725079Y214354D01*
X725079Y230806D01*
X726446Y234107D01*
X728973Y236634D01*
X732274Y238001D01*
X735846Y238001D01*
X739147Y236634D01*
X741674Y234107D01*
X743041Y230806D01*
X743041Y214354D01*
X741674Y211053D01*
X739147Y208526D01*
X735846Y207159D01*
X732274Y207159D01*
G37*
%LPD*%
%LPC*%
G36*
X579874Y207159D02*
X579874Y207159D01*
X576573Y208526D01*
X574046Y211053D01*
X572679Y214354D01*
X572679Y230806D01*
X574046Y234107D01*
X576573Y236634D01*
X579874Y238001D01*
X583446Y238001D01*
X586747Y236634D01*
X589274Y234107D01*
X590641Y230806D01*
X590641Y214354D01*
X589274Y211053D01*
X586747Y208526D01*
X583446Y207159D01*
X579874Y207159D01*
G37*
%LPD*%
%LPC*%
G36*
X656074Y127759D02*
X656074Y127759D01*
X652773Y129126D01*
X650246Y131653D01*
X648879Y134954D01*
X648879Y151406D01*
X650246Y154707D01*
X652773Y157234D01*
X656074Y158601D01*
X659646Y158601D01*
X662947Y157234D01*
X665474Y154707D01*
X666841Y151406D01*
X666841Y134954D01*
X665474Y131653D01*
X662947Y129126D01*
X659646Y127759D01*
X656074Y127759D01*
G37*
%LPD*%
%LPC*%
G36*
X630674Y127759D02*
X630674Y127759D01*
X627373Y129126D01*
X624846Y131653D01*
X623479Y134954D01*
X623479Y151406D01*
X624846Y154707D01*
X627373Y157234D01*
X630674Y158601D01*
X634246Y158601D01*
X637547Y157234D01*
X640074Y154707D01*
X641441Y151406D01*
X641441Y134954D01*
X640074Y131653D01*
X637547Y129126D01*
X634246Y127759D01*
X630674Y127759D01*
G37*
%LPD*%
%LPC*%
G36*
X605274Y127759D02*
X605274Y127759D01*
X601973Y129126D01*
X599446Y131653D01*
X598079Y134954D01*
X598079Y151406D01*
X599446Y154707D01*
X601973Y157234D01*
X605274Y158601D01*
X608846Y158601D01*
X612147Y157234D01*
X614674Y154707D01*
X616041Y151406D01*
X616041Y134954D01*
X614674Y131653D01*
X612147Y129126D01*
X608846Y127759D01*
X605274Y127759D01*
G37*
%LPD*%
%LPC*%
G36*
X681474Y207159D02*
X681474Y207159D01*
X678173Y208526D01*
X675646Y211053D01*
X674279Y214354D01*
X674279Y230806D01*
X675646Y234107D01*
X678173Y236634D01*
X681474Y238001D01*
X685046Y238001D01*
X688347Y236634D01*
X690874Y234107D01*
X692241Y230806D01*
X692241Y214354D01*
X690874Y211053D01*
X688347Y208526D01*
X685046Y207159D01*
X681474Y207159D01*
G37*
%LPD*%
%LPC*%
G36*
X630674Y207159D02*
X630674Y207159D01*
X627373Y208526D01*
X624846Y211053D01*
X623479Y214354D01*
X623479Y230806D01*
X624846Y234107D01*
X627373Y236634D01*
X630674Y238001D01*
X634246Y238001D01*
X637547Y236634D01*
X640074Y234107D01*
X641441Y230806D01*
X641441Y214354D01*
X640074Y211053D01*
X637547Y208526D01*
X634246Y207159D01*
X630674Y207159D01*
G37*
%LPD*%
%LPC*%
G36*
X706874Y207159D02*
X706874Y207159D01*
X703573Y208526D01*
X701046Y211053D01*
X699679Y214354D01*
X699679Y230806D01*
X701046Y234107D01*
X703573Y236634D01*
X706874Y238001D01*
X710446Y238001D01*
X713747Y236634D01*
X716274Y234107D01*
X717641Y230806D01*
X717641Y214354D01*
X716274Y211053D01*
X713747Y208526D01*
X710446Y207159D01*
X706874Y207159D01*
G37*
%LPD*%
%LPC*%
G36*
X757674Y207159D02*
X757674Y207159D01*
X754373Y208526D01*
X751846Y211053D01*
X750479Y214354D01*
X750479Y230806D01*
X751846Y234107D01*
X754373Y236634D01*
X757674Y238001D01*
X761246Y238001D01*
X764547Y236634D01*
X767074Y234107D01*
X768441Y230806D01*
X768441Y214354D01*
X767074Y211053D01*
X764547Y208526D01*
X761246Y207159D01*
X757674Y207159D01*
G37*
%LPD*%
%LPC*%
G36*
X366613Y357704D02*
X366613Y357704D01*
X365124Y359193D01*
X365124Y377807D01*
X366613Y379296D01*
X385227Y379296D01*
X386716Y377807D01*
X386716Y359193D01*
X385227Y357704D01*
X366613Y357704D01*
G37*
%LPD*%
%LPC*%
G36*
X219293Y355164D02*
X219293Y355164D01*
X217804Y356653D01*
X217804Y375267D01*
X219293Y376756D01*
X237907Y376756D01*
X239396Y375267D01*
X239396Y356653D01*
X237907Y355164D01*
X219293Y355164D01*
G37*
%LPD*%
%LPC*%
G36*
X34880Y242288D02*
X34880Y242288D01*
X33392Y243776D01*
X33392Y262381D01*
X34880Y263869D01*
X53485Y263869D01*
X54974Y262381D01*
X54974Y243776D01*
X53485Y242288D01*
X34880Y242288D01*
G37*
%LPD*%
%LPC*%
G36*
X274532Y230324D02*
X274532Y230324D01*
X270564Y231967D01*
X267527Y235004D01*
X265884Y238972D01*
X265884Y243267D01*
X267527Y247235D01*
X270564Y250272D01*
X274532Y251915D01*
X278827Y251915D01*
X282795Y250272D01*
X285832Y247235D01*
X287475Y243267D01*
X287475Y238972D01*
X285832Y235004D01*
X282795Y231967D01*
X278827Y230324D01*
X274532Y230324D01*
G37*
%LPD*%
%LPC*%
G36*
X310453Y266245D02*
X310453Y266245D01*
X306485Y267888D01*
X303448Y270925D01*
X301805Y274893D01*
X301805Y279188D01*
X303448Y283156D01*
X306485Y286193D01*
X310453Y287836D01*
X314748Y287836D01*
X318716Y286193D01*
X321753Y283156D01*
X323396Y279188D01*
X323396Y274893D01*
X321753Y270925D01*
X318716Y267888D01*
X314748Y266245D01*
X310453Y266245D01*
G37*
%LPD*%
%LPC*%
G36*
X42036Y192288D02*
X42036Y192288D01*
X38070Y193931D01*
X35035Y196966D01*
X33392Y200932D01*
X33392Y205225D01*
X35035Y209191D01*
X38070Y212226D01*
X42036Y213869D01*
X46329Y213869D01*
X50295Y212226D01*
X53331Y209191D01*
X54974Y205225D01*
X54974Y200932D01*
X53331Y196966D01*
X50295Y193931D01*
X46329Y192288D01*
X42036Y192288D01*
G37*
%LPD*%
%LPC*%
G36*
X264432Y35492D02*
X264432Y35492D01*
X258480Y41444D01*
X258480Y49862D01*
X264432Y55814D01*
X272849Y55814D01*
X278801Y49862D01*
X278801Y41444D01*
X272849Y35492D01*
X264432Y35492D01*
G37*
%LPD*%
%LPC*%
G36*
X620224Y461618D02*
X620224Y461618D01*
X616717Y463070D01*
X614033Y465754D01*
X612581Y469261D01*
X612581Y473056D01*
X614033Y476563D01*
X616717Y479247D01*
X620224Y480699D01*
X624019Y480699D01*
X627526Y479247D01*
X630210Y476563D01*
X631662Y473056D01*
X631662Y469261D01*
X630210Y465754D01*
X627526Y463070D01*
X624019Y461618D01*
X620224Y461618D01*
G37*
%LPD*%
%LPC*%
G36*
X671024Y461618D02*
X671024Y461618D01*
X667517Y463070D01*
X664833Y465754D01*
X663381Y469261D01*
X663381Y473056D01*
X664833Y476563D01*
X667517Y479247D01*
X671024Y480699D01*
X674819Y480699D01*
X678326Y479247D01*
X681010Y476563D01*
X682462Y473056D01*
X682462Y469261D01*
X681010Y465754D01*
X678326Y463070D01*
X674819Y461618D01*
X671024Y461618D01*
G37*
%LPD*%
%LPC*%
G36*
X696424Y461618D02*
X696424Y461618D01*
X692917Y463070D01*
X690233Y465754D01*
X688781Y469261D01*
X688781Y473056D01*
X690233Y476563D01*
X692917Y479247D01*
X696424Y480699D01*
X700219Y480699D01*
X703726Y479247D01*
X706410Y476563D01*
X707862Y473056D01*
X707862Y469261D01*
X706410Y465754D01*
X703726Y463070D01*
X700219Y461618D01*
X696424Y461618D01*
G37*
%LPD*%
%LPC*%
G36*
X594824Y461618D02*
X594824Y461618D01*
X591317Y463070D01*
X588633Y465754D01*
X587181Y469261D01*
X587181Y473056D01*
X588633Y476563D01*
X591317Y479247D01*
X594824Y480699D01*
X598619Y480699D01*
X602126Y479247D01*
X604810Y476563D01*
X606262Y473056D01*
X606262Y469261D01*
X604810Y465754D01*
X602126Y463070D01*
X598619Y461618D01*
X594824Y461618D01*
G37*
%LPD*%
%LPC*%
G36*
X696424Y309218D02*
X696424Y309218D01*
X692917Y310670D01*
X690233Y313354D01*
X688781Y316861D01*
X688781Y320656D01*
X690233Y324163D01*
X692917Y326847D01*
X696424Y328299D01*
X700219Y328299D01*
X703726Y326847D01*
X706410Y324163D01*
X707862Y320656D01*
X707862Y316861D01*
X706410Y313354D01*
X703726Y310670D01*
X700219Y309218D01*
X696424Y309218D01*
G37*
%LPD*%
%LPC*%
G36*
X671024Y309218D02*
X671024Y309218D01*
X667517Y310670D01*
X664833Y313354D01*
X663381Y316861D01*
X663381Y320656D01*
X664833Y324163D01*
X667517Y326847D01*
X671024Y328299D01*
X674819Y328299D01*
X678326Y326847D01*
X681010Y324163D01*
X682462Y320656D01*
X682462Y316861D01*
X681010Y313354D01*
X678326Y310670D01*
X674819Y309218D01*
X671024Y309218D01*
G37*
%LPD*%
%LPC*%
G36*
X431463Y466528D02*
X431463Y466528D01*
X429139Y467491D01*
X427360Y469270D01*
X426398Y471593D01*
X426398Y474109D01*
X427360Y476433D01*
X429139Y478211D01*
X431463Y479174D01*
X433978Y479174D01*
X436302Y478211D01*
X438080Y476433D01*
X439043Y474109D01*
X439043Y471593D01*
X438080Y469270D01*
X436302Y467491D01*
X433978Y466528D01*
X431463Y466528D01*
G37*
%LPD*%
%LPC*%
G36*
X217676Y439400D02*
X217676Y439400D01*
X215352Y440363D01*
X213574Y442142D01*
X212611Y444465D01*
X212611Y446981D01*
X213574Y449305D01*
X215352Y451083D01*
X217676Y452046D01*
X220191Y452046D01*
X222515Y451083D01*
X224294Y449305D01*
X225257Y446981D01*
X225257Y444465D01*
X224294Y442142D01*
X222515Y440363D01*
X220191Y439400D01*
X217676Y439400D01*
G37*
%LPD*%
%LPC*%
G36*
X313417Y310628D02*
X313417Y310628D01*
X311093Y311591D01*
X309314Y313370D01*
X308352Y315693D01*
X308352Y318209D01*
X309314Y320533D01*
X311093Y322311D01*
X313417Y323274D01*
X315932Y323274D01*
X318256Y322311D01*
X320035Y320533D01*
X320997Y318209D01*
X320997Y315693D01*
X320035Y313370D01*
X318256Y311591D01*
X315932Y310628D01*
X313417Y310628D01*
G37*
%LPD*%
%LPC*%
G36*
X751525Y305426D02*
X751525Y305426D01*
X749201Y306388D01*
X747423Y308167D01*
X746460Y310491D01*
X746460Y313006D01*
X747423Y315330D01*
X749201Y317109D01*
X751525Y318071D01*
X754041Y318071D01*
X756364Y317109D01*
X758143Y315330D01*
X759106Y313006D01*
X759106Y310491D01*
X758143Y308167D01*
X756364Y306388D01*
X754041Y305426D01*
X751525Y305426D01*
G37*
%LPD*%
%LPC*%
G36*
X548479Y318183D02*
X548479Y318183D01*
X546155Y319145D01*
X544376Y320924D01*
X543414Y323248D01*
X543414Y325763D01*
X544376Y328087D01*
X546155Y329866D01*
X548479Y330828D01*
X550994Y330828D01*
X553318Y329866D01*
X555097Y328087D01*
X556059Y325763D01*
X556059Y323248D01*
X555097Y320924D01*
X553318Y319145D01*
X550994Y318183D01*
X548479Y318183D01*
G37*
%LPD*%
%LPC*%
G36*
X465092Y436997D02*
X465092Y436997D01*
X462768Y437959D01*
X460989Y439738D01*
X460027Y442062D01*
X460027Y444577D01*
X460989Y446901D01*
X462768Y448680D01*
X465092Y449642D01*
X467607Y449642D01*
X469931Y448680D01*
X471710Y446901D01*
X472672Y444577D01*
X472672Y442062D01*
X471710Y439738D01*
X469931Y437959D01*
X467607Y436997D01*
X465092Y436997D01*
G37*
%LPD*%
%LPC*%
G36*
X421168Y292772D02*
X421168Y292772D01*
X418844Y293734D01*
X417065Y295513D01*
X416103Y297837D01*
X416103Y300352D01*
X417065Y302676D01*
X418844Y304455D01*
X421168Y305417D01*
X423683Y305417D01*
X426007Y304455D01*
X427786Y302676D01*
X428748Y300352D01*
X428748Y297837D01*
X427786Y295513D01*
X426007Y293734D01*
X423683Y292772D01*
X421168Y292772D01*
G37*
%LPD*%
%LPC*%
G36*
X157624Y291742D02*
X157624Y291742D01*
X155300Y292704D01*
X153521Y294483D01*
X152559Y296807D01*
X152559Y299322D01*
X153521Y301646D01*
X155300Y303425D01*
X157624Y304387D01*
X160139Y304387D01*
X162463Y303425D01*
X164242Y301646D01*
X165204Y299322D01*
X165204Y296807D01*
X164242Y294483D01*
X162463Y292704D01*
X160139Y291742D01*
X157624Y291742D01*
G37*
%LPD*%
%LPC*%
G36*
X469553Y290712D02*
X469553Y290712D01*
X467229Y291674D01*
X465450Y293453D01*
X464488Y295777D01*
X464488Y298292D01*
X465450Y300616D01*
X467229Y302394D01*
X469553Y303357D01*
X472068Y303357D01*
X474392Y302394D01*
X476171Y300616D01*
X477133Y298292D01*
X477133Y295777D01*
X476171Y293453D01*
X474392Y291674D01*
X472068Y290712D01*
X469553Y290712D01*
G37*
%LPD*%
%LPC*%
G36*
X397147Y436310D02*
X397147Y436310D01*
X394823Y437272D01*
X393044Y439051D01*
X392082Y441375D01*
X392082Y443890D01*
X393044Y446214D01*
X394823Y447993D01*
X397147Y448955D01*
X399662Y448955D01*
X401986Y447993D01*
X403765Y446214D01*
X404727Y443890D01*
X404727Y441375D01*
X403765Y439051D01*
X401986Y437272D01*
X399662Y436310D01*
X397147Y436310D01*
G37*
%LPD*%
%LPC*%
G36*
X770802Y268808D02*
X770802Y268808D01*
X768478Y269770D01*
X766700Y271549D01*
X765737Y273873D01*
X765737Y276388D01*
X766700Y278712D01*
X768478Y280491D01*
X770802Y281453D01*
X773317Y281453D01*
X775641Y280491D01*
X777420Y278712D01*
X778382Y276388D01*
X778382Y273873D01*
X777420Y271549D01*
X775641Y269770D01*
X773317Y268808D01*
X770802Y268808D01*
G37*
%LPD*%
%LPC*%
G36*
X545390Y419484D02*
X545390Y419484D01*
X543067Y420446D01*
X541288Y422225D01*
X540325Y424549D01*
X540325Y427064D01*
X541288Y429388D01*
X543067Y431167D01*
X545390Y432129D01*
X547906Y432129D01*
X550230Y431167D01*
X552008Y429388D01*
X552971Y427064D01*
X552971Y424549D01*
X552008Y422225D01*
X550230Y420446D01*
X547906Y419484D01*
X545390Y419484D01*
G37*
%LPD*%
%LPC*%
G36*
X750537Y405383D02*
X750537Y405383D01*
X748213Y406346D01*
X746434Y408125D01*
X745472Y410448D01*
X745472Y412964D01*
X746434Y415288D01*
X748213Y417066D01*
X750537Y418029D01*
X753052Y418029D01*
X755376Y417066D01*
X757155Y415288D01*
X758117Y412964D01*
X758117Y410448D01*
X757155Y408125D01*
X755376Y406346D01*
X753052Y405383D01*
X750537Y405383D01*
G37*
%LPD*%
%LPC*%
G36*
X467837Y379994D02*
X467837Y379994D01*
X465513Y380956D01*
X463735Y382735D01*
X462772Y385059D01*
X462772Y387574D01*
X463735Y389898D01*
X465513Y391676D01*
X467837Y392639D01*
X470353Y392639D01*
X472676Y391676D01*
X474455Y389898D01*
X475418Y387574D01*
X475418Y385059D01*
X474455Y382735D01*
X472676Y380956D01*
X470353Y379994D01*
X467837Y379994D01*
G37*
%LPD*%
%LPC*%
G36*
X156594Y210358D02*
X156594Y210358D01*
X154270Y211320D01*
X152492Y213099D01*
X151529Y215423D01*
X151529Y217938D01*
X152492Y220262D01*
X154270Y222041D01*
X156594Y223003D01*
X159110Y223003D01*
X161433Y222041D01*
X163212Y220262D01*
X164175Y217938D01*
X164175Y215423D01*
X163212Y213099D01*
X161433Y211320D01*
X159110Y210358D01*
X156594Y210358D01*
G37*
%LPD*%
%LPC*%
G36*
X306897Y218943D02*
X306897Y218943D01*
X304573Y219905D01*
X302794Y221684D01*
X301832Y224008D01*
X301832Y226523D01*
X302794Y228847D01*
X304573Y230625D01*
X306897Y231588D01*
X309412Y231588D01*
X311736Y230625D01*
X313515Y228847D01*
X314477Y226523D01*
X314477Y224008D01*
X313515Y221684D01*
X311736Y219905D01*
X309412Y218943D01*
X306897Y218943D01*
G37*
%LPD*%
%LPC*%
G36*
X497467Y231695D02*
X497467Y231695D01*
X495143Y232657D01*
X493365Y234436D01*
X492402Y236760D01*
X492402Y239275D01*
X493365Y241599D01*
X495143Y243378D01*
X497467Y244340D01*
X499983Y244340D01*
X502306Y243378D01*
X504085Y241599D01*
X505048Y239275D01*
X505048Y236760D01*
X504085Y234436D01*
X502306Y232657D01*
X499983Y231695D01*
X497467Y231695D01*
G37*
%LPD*%
%LPC*%
G36*
X547793Y371409D02*
X547793Y371409D01*
X545469Y372371D01*
X543690Y374150D01*
X542728Y376474D01*
X542728Y378989D01*
X543690Y381313D01*
X545469Y383092D01*
X547793Y384054D01*
X550308Y384054D01*
X552632Y383092D01*
X554410Y381313D01*
X555373Y378989D01*
X555373Y376474D01*
X554410Y374150D01*
X552632Y372371D01*
X550308Y371409D01*
X547793Y371409D01*
G37*
%LPD*%
%LPC*%
G36*
X750537Y356394D02*
X750537Y356394D01*
X748213Y357357D01*
X746434Y359135D01*
X745472Y361459D01*
X745472Y363975D01*
X746434Y366299D01*
X748213Y368077D01*
X750537Y369040D01*
X753052Y369040D01*
X755376Y368077D01*
X757155Y366299D01*
X758117Y363975D01*
X758117Y361459D01*
X757155Y359135D01*
X755376Y357357D01*
X753052Y356394D01*
X750537Y356394D01*
G37*
%LPD*%
%LPC*%
G36*
X405383Y325738D02*
X405383Y325738D01*
X403059Y326700D01*
X401280Y328479D01*
X400318Y330803D01*
X400318Y333318D01*
X401280Y335642D01*
X403059Y337420D01*
X405383Y338383D01*
X407898Y338383D01*
X410222Y337420D01*
X412001Y335642D01*
X412963Y333318D01*
X412963Y330803D01*
X412001Y328479D01*
X410222Y326700D01*
X407898Y325738D01*
X405383Y325738D01*
G37*
%LPD*%
%LPC*%
G36*
X469896Y324707D02*
X469896Y324707D01*
X467572Y325670D01*
X465794Y327449D01*
X464831Y329772D01*
X464831Y332288D01*
X465794Y334612D01*
X467572Y336390D01*
X469896Y337353D01*
X472411Y337353D01*
X474735Y336390D01*
X476514Y334612D01*
X477476Y332288D01*
X477476Y329772D01*
X476514Y327449D01*
X474735Y325670D01*
X472411Y324707D01*
X469896Y324707D01*
G37*
%LPD*%
%LPC*%
G36*
X354342Y323877D02*
X354342Y323877D01*
X352018Y324840D01*
X350240Y326618D01*
X349277Y328942D01*
X349277Y331458D01*
X350240Y333782D01*
X352018Y335560D01*
X354342Y336523D01*
X356858Y336523D01*
X359182Y335560D01*
X360960Y333782D01*
X361923Y331458D01*
X361923Y328942D01*
X360960Y326618D01*
X359182Y324840D01*
X356858Y323877D01*
X354342Y323877D01*
G37*
%LPD*%
%LPC*%
G36*
X176542Y323877D02*
X176542Y323877D01*
X174218Y324840D01*
X172440Y326618D01*
X171477Y328942D01*
X171477Y331458D01*
X172440Y333782D01*
X174218Y335560D01*
X176542Y336523D01*
X179058Y336523D01*
X181382Y335560D01*
X183160Y333782D01*
X184123Y331458D01*
X184123Y328942D01*
X183160Y326618D01*
X181382Y324840D01*
X179058Y323877D01*
X176542Y323877D01*
G37*
%LPD*%
%LPC*%
G36*
X530635Y123823D02*
X530635Y123823D01*
X528311Y124785D01*
X526532Y126564D01*
X525570Y128888D01*
X525570Y131403D01*
X526532Y133727D01*
X528311Y135506D01*
X530635Y136468D01*
X533150Y136468D01*
X535474Y135506D01*
X537253Y133727D01*
X538215Y131403D01*
X538215Y128888D01*
X537253Y126564D01*
X535474Y124785D01*
X533150Y123823D01*
X530635Y123823D01*
G37*
%LPD*%
%LPC*%
G36*
X83845Y437683D02*
X83845Y437683D01*
X81521Y438646D01*
X79743Y440425D01*
X78780Y442748D01*
X78780Y445264D01*
X79743Y447588D01*
X81521Y449366D01*
X83845Y450329D01*
X86360Y450329D01*
X88684Y449366D01*
X90463Y447588D01*
X91426Y445264D01*
X91426Y442748D01*
X90463Y440425D01*
X88684Y438646D01*
X86360Y437683D01*
X83845Y437683D01*
G37*
%LPD*%
%LPC*%
G36*
X760422Y95119D02*
X760422Y95119D01*
X758098Y96082D01*
X756320Y97860D01*
X755357Y100184D01*
X755357Y102700D01*
X756320Y105024D01*
X758098Y106802D01*
X760422Y107765D01*
X762938Y107765D01*
X765261Y106802D01*
X767040Y105024D01*
X768003Y102700D01*
X768003Y100184D01*
X767040Y97860D01*
X765261Y96082D01*
X762938Y95119D01*
X760422Y95119D01*
G37*
%LPD*%
%LPC*%
G36*
X545047Y468245D02*
X545047Y468245D01*
X542723Y469208D01*
X540945Y470987D01*
X539982Y473310D01*
X539982Y475826D01*
X540945Y478150D01*
X542723Y479928D01*
X545047Y480891D01*
X547563Y480891D01*
X549887Y479928D01*
X551665Y478150D01*
X552628Y475826D01*
X552628Y473310D01*
X551665Y470987D01*
X549887Y469208D01*
X547563Y468245D01*
X545047Y468245D01*
G37*
%LPD*%
%LPC*%
G36*
X247531Y468245D02*
X247531Y468245D01*
X245207Y469208D01*
X243428Y470987D01*
X242466Y473310D01*
X242466Y475826D01*
X243428Y478150D01*
X245207Y479928D01*
X247531Y480891D01*
X250046Y480891D01*
X252370Y479928D01*
X254149Y478150D01*
X255111Y475826D01*
X255111Y473310D01*
X254149Y470987D01*
X252370Y469208D01*
X250046Y468245D01*
X247531Y468245D01*
G37*
%LPD*%
%LPC*%
G36*
X190910Y467559D02*
X190910Y467559D01*
X188586Y468521D01*
X186807Y470300D01*
X185845Y472624D01*
X185845Y475139D01*
X186807Y477463D01*
X188586Y479241D01*
X190910Y480204D01*
X193425Y480204D01*
X195749Y479241D01*
X197528Y477463D01*
X198490Y475139D01*
X198490Y472624D01*
X197528Y470300D01*
X195749Y468521D01*
X193425Y467559D01*
X190910Y467559D01*
G37*
%LPD*%
%LPC*%
G36*
X359400Y467215D02*
X359400Y467215D01*
X357076Y468178D01*
X355297Y469956D01*
X354335Y472280D01*
X354335Y474796D01*
X355297Y477119D01*
X357076Y478898D01*
X359400Y479861D01*
X361915Y479861D01*
X364239Y478898D01*
X366018Y477119D01*
X366980Y474796D01*
X366980Y472280D01*
X366018Y469956D01*
X364239Y468178D01*
X361915Y467215D01*
X359400Y467215D01*
G37*
%LPD*%
%LPC*%
G36*
X437639Y22522D02*
X437639Y22522D01*
X435316Y23485D01*
X433537Y25263D01*
X432574Y27587D01*
X432574Y30103D01*
X433537Y32426D01*
X435316Y34205D01*
X437639Y35168D01*
X440155Y35168D01*
X442479Y34205D01*
X444257Y32426D01*
X445220Y30103D01*
X445220Y27587D01*
X444257Y25263D01*
X442479Y23485D01*
X440155Y22522D01*
X437639Y22522D01*
G37*
%LPD*%
%LPC*%
G36*
X519654Y19432D02*
X519654Y19432D01*
X517330Y20394D01*
X515551Y22173D01*
X514589Y24497D01*
X514589Y27012D01*
X515551Y29336D01*
X517330Y31115D01*
X519654Y32077D01*
X522169Y32077D01*
X524493Y31115D01*
X526272Y29336D01*
X527234Y27012D01*
X527234Y24497D01*
X526272Y22173D01*
X524493Y20394D01*
X522169Y19432D01*
X519654Y19432D01*
G37*
%LPD*%
%LPC*%
G36*
X692212Y19409D02*
X692212Y19409D01*
X689888Y20371D01*
X688110Y22150D01*
X687147Y24474D01*
X687147Y26989D01*
X688110Y29313D01*
X689888Y31092D01*
X692212Y32054D01*
X694727Y32054D01*
X697051Y31092D01*
X698830Y29313D01*
X699793Y26989D01*
X699793Y24474D01*
X698830Y22150D01*
X697051Y20371D01*
X694727Y19409D01*
X692212Y19409D01*
G37*
%LPD*%
%LPC*%
G36*
X607691Y19409D02*
X607691Y19409D01*
X605367Y20371D01*
X603588Y22150D01*
X602626Y24474D01*
X602626Y26989D01*
X603588Y29313D01*
X605367Y31092D01*
X607691Y32054D01*
X610206Y32054D01*
X612530Y31092D01*
X614309Y29313D01*
X615271Y26989D01*
X615271Y24474D01*
X614309Y22150D01*
X612530Y20371D01*
X610206Y19409D01*
X607691Y19409D01*
G37*
%LPD*%
%LPC*%
G36*
X650199Y18914D02*
X650199Y18914D01*
X647875Y19877D01*
X646096Y21655D01*
X645134Y23979D01*
X645134Y26494D01*
X646096Y28818D01*
X647875Y30597D01*
X650199Y31560D01*
X652714Y31560D01*
X655038Y30597D01*
X656816Y28818D01*
X657779Y26494D01*
X657779Y23979D01*
X656816Y21655D01*
X655038Y19877D01*
X652714Y18914D01*
X650199Y18914D01*
G37*
%LPD*%
%LPC*%
G36*
X129031Y162051D02*
X129031Y162051D01*
X129031Y169165D01*
X134324Y169165D01*
X135745Y168940D01*
X137114Y168495D01*
X138397Y167841D01*
X139561Y166995D01*
X140579Y165977D01*
X141425Y164813D01*
X142079Y163530D01*
X142524Y162161D01*
X142541Y162051D01*
X129031Y162051D01*
G37*
%LPD*%
%LPC*%
G36*
X205231Y187451D02*
X205231Y187451D01*
X205231Y194565D01*
X210524Y194565D01*
X211945Y194340D01*
X213314Y193895D01*
X214597Y193241D01*
X215761Y192395D01*
X216779Y191377D01*
X217625Y190213D01*
X218279Y188930D01*
X218724Y187561D01*
X218741Y187451D01*
X205231Y187451D01*
G37*
%LPD*%
%LPC*%
G36*
X129031Y187451D02*
X129031Y187451D01*
X129031Y194565D01*
X134324Y194565D01*
X135745Y194340D01*
X137114Y193895D01*
X138397Y193241D01*
X139561Y192395D01*
X140579Y191377D01*
X141425Y190213D01*
X142079Y188930D01*
X142524Y187561D01*
X142541Y187451D01*
X129031Y187451D01*
G37*
%LPD*%
%LPC*%
G36*
X205231Y162051D02*
X205231Y162051D01*
X205231Y169165D01*
X210524Y169165D01*
X211945Y168940D01*
X213314Y168495D01*
X214597Y167841D01*
X215761Y166995D01*
X216779Y165977D01*
X217625Y164813D01*
X218279Y163530D01*
X218724Y162161D01*
X218741Y162051D01*
X205231Y162051D01*
G37*
%LPD*%
%LPC*%
G36*
X401428Y34628D02*
X401428Y34628D01*
X401428Y48137D01*
X401538Y48120D01*
X402907Y47675D01*
X404189Y47022D01*
X405354Y46176D01*
X406372Y45158D01*
X407218Y43993D01*
X407871Y42711D01*
X408316Y41342D01*
X408541Y39920D01*
X408541Y34628D01*
X401428Y34628D01*
G37*
%LPD*%
%LPC*%
G36*
X187659Y162051D02*
X187659Y162051D01*
X187676Y162161D01*
X188121Y163530D01*
X188775Y164813D01*
X189621Y165977D01*
X190639Y166995D01*
X191803Y167841D01*
X193086Y168495D01*
X194455Y168940D01*
X195876Y169165D01*
X201169Y169165D01*
X201169Y162051D01*
X187659Y162051D01*
G37*
%LPD*%
%LPC*%
G36*
X187659Y187451D02*
X187659Y187451D01*
X187676Y187561D01*
X188121Y188930D01*
X188775Y190213D01*
X189621Y191377D01*
X190639Y192395D01*
X191803Y193241D01*
X193086Y193895D01*
X194455Y194340D01*
X195876Y194565D01*
X201169Y194565D01*
X201169Y187451D01*
X187659Y187451D01*
G37*
%LPD*%
%LPC*%
G36*
X111459Y187451D02*
X111459Y187451D01*
X111476Y187561D01*
X111921Y188930D01*
X112575Y190213D01*
X113421Y191377D01*
X114439Y192395D01*
X115603Y193241D01*
X116886Y193895D01*
X118255Y194340D01*
X119676Y194565D01*
X124969Y194565D01*
X124969Y187451D01*
X111459Y187451D01*
G37*
%LPD*%
%LPC*%
G36*
X111459Y162051D02*
X111459Y162051D01*
X111476Y162161D01*
X111921Y163530D01*
X112575Y164813D01*
X113421Y165977D01*
X114439Y166995D01*
X115603Y167841D01*
X116886Y168495D01*
X118255Y168940D01*
X119676Y169165D01*
X124969Y169165D01*
X124969Y162051D01*
X111459Y162051D01*
G37*
%LPD*%
%LPC*%
G36*
X401428Y30565D02*
X401428Y30565D01*
X408541Y30565D01*
X408541Y25273D01*
X408316Y23851D01*
X407871Y22482D01*
X407218Y21200D01*
X406372Y20035D01*
X405354Y19017D01*
X404189Y18171D01*
X402907Y17518D01*
X401538Y17073D01*
X401428Y17055D01*
X401428Y30565D01*
G37*
%LPD*%
%LPC*%
G36*
X390252Y34628D02*
X390252Y34628D01*
X390252Y39920D01*
X390477Y41342D01*
X390922Y42711D01*
X391575Y43993D01*
X392421Y45158D01*
X393439Y46176D01*
X394604Y47022D01*
X395886Y47675D01*
X397255Y48120D01*
X397365Y48137D01*
X397365Y34628D01*
X390252Y34628D01*
G37*
%LPD*%
%LPC*%
G36*
X205231Y150875D02*
X205231Y150875D01*
X205231Y157989D01*
X218741Y157989D01*
X218724Y157879D01*
X218279Y156510D01*
X217625Y155227D01*
X216779Y154063D01*
X215761Y153045D01*
X214597Y152199D01*
X213314Y151545D01*
X211945Y151100D01*
X210524Y150875D01*
X205231Y150875D01*
G37*
%LPD*%
%LPC*%
G36*
X205231Y176275D02*
X205231Y176275D01*
X205231Y183389D01*
X218741Y183389D01*
X218724Y183279D01*
X218279Y181910D01*
X217625Y180627D01*
X216779Y179463D01*
X215761Y178445D01*
X214597Y177599D01*
X213314Y176945D01*
X211945Y176500D01*
X210524Y176275D01*
X205231Y176275D01*
G37*
%LPD*%
%LPC*%
G36*
X129031Y176275D02*
X129031Y176275D01*
X129031Y183389D01*
X142541Y183389D01*
X142524Y183279D01*
X142079Y181910D01*
X141425Y180627D01*
X140579Y179463D01*
X139561Y178445D01*
X138397Y177599D01*
X137114Y176945D01*
X135745Y176500D01*
X134324Y176275D01*
X129031Y176275D01*
G37*
%LPD*%
%LPC*%
G36*
X195876Y150875D02*
X195876Y150875D01*
X194455Y151100D01*
X193086Y151545D01*
X191803Y152199D01*
X190639Y153045D01*
X189621Y154063D01*
X188775Y155227D01*
X188121Y156510D01*
X187676Y157879D01*
X187659Y157989D01*
X201169Y157989D01*
X201169Y150875D01*
X195876Y150875D01*
G37*
%LPD*%
%LPC*%
G36*
X195876Y176275D02*
X195876Y176275D01*
X194455Y176500D01*
X193086Y176945D01*
X191803Y177599D01*
X190639Y178445D01*
X189621Y179463D01*
X188775Y180627D01*
X188121Y181910D01*
X187676Y183279D01*
X187659Y183389D01*
X201169Y183389D01*
X201169Y176275D01*
X195876Y176275D01*
G37*
%LPD*%
%LPC*%
G36*
X119676Y176275D02*
X119676Y176275D01*
X118255Y176500D01*
X116886Y176945D01*
X115603Y177599D01*
X114439Y178445D01*
X113421Y179463D01*
X112575Y180627D01*
X111921Y181910D01*
X111476Y183279D01*
X111459Y183389D01*
X124969Y183389D01*
X124969Y176275D01*
X119676Y176275D01*
G37*
%LPD*%
%LPC*%
G36*
X397255Y17073D02*
X397255Y17073D01*
X395886Y17518D01*
X394604Y18171D01*
X393439Y19017D01*
X392421Y20035D01*
X391575Y21200D01*
X390922Y22482D01*
X390477Y23851D01*
X390252Y25273D01*
X390252Y30565D01*
X397365Y30565D01*
X397365Y17055D01*
X397255Y17073D01*
G37*
%LPD*%
%LPC*%
G36*
X761409Y145129D02*
X761409Y145129D01*
X761409Y158389D01*
X762080Y158256D01*
X763714Y157579D01*
X765185Y156596D01*
X766436Y155345D01*
X767419Y153874D01*
X768096Y152240D01*
X768441Y150504D01*
X768441Y145129D01*
X761409Y145129D01*
G37*
%LPD*%
%LPC*%
G36*
X685209Y145129D02*
X685209Y145129D01*
X685209Y158389D01*
X685880Y158256D01*
X687514Y157579D01*
X688985Y156596D01*
X690236Y155345D01*
X691219Y153874D01*
X691896Y152240D01*
X692241Y150504D01*
X692241Y145129D01*
X685209Y145129D01*
G37*
%LPD*%
%LPC*%
G36*
X761409Y141231D02*
X761409Y141231D01*
X768441Y141231D01*
X768441Y135856D01*
X768096Y134120D01*
X767419Y132486D01*
X766436Y131015D01*
X765185Y129764D01*
X763714Y128781D01*
X762080Y128104D01*
X761409Y127971D01*
X761409Y141231D01*
G37*
%LPD*%
%LPC*%
G36*
X685209Y141231D02*
X685209Y141231D01*
X692241Y141231D01*
X692241Y135856D01*
X691896Y134120D01*
X691219Y132486D01*
X690236Y131015D01*
X688985Y129764D01*
X687514Y128781D01*
X685880Y128104D01*
X685209Y127971D01*
X685209Y141231D01*
G37*
%LPD*%
%LPC*%
G36*
X674279Y145129D02*
X674279Y145129D01*
X674279Y150504D01*
X674624Y152240D01*
X675301Y153874D01*
X676284Y155345D01*
X677535Y156596D01*
X679006Y157579D01*
X680640Y158256D01*
X681311Y158389D01*
X681311Y145129D01*
X674279Y145129D01*
G37*
%LPD*%
%LPC*%
G36*
X750479Y145129D02*
X750479Y145129D01*
X750479Y150504D01*
X750824Y152240D01*
X751501Y153874D01*
X752484Y155345D01*
X753735Y156596D01*
X755206Y157579D01*
X756840Y158256D01*
X757511Y158389D01*
X757511Y145129D01*
X750479Y145129D01*
G37*
%LPD*%
%LPC*%
G36*
X756840Y128104D02*
X756840Y128104D01*
X755206Y128781D01*
X753735Y129764D01*
X752484Y131015D01*
X751501Y132486D01*
X750824Y134120D01*
X750479Y135856D01*
X750479Y141231D01*
X757511Y141231D01*
X757511Y127971D01*
X756840Y128104D01*
G37*
%LPD*%
%LPC*%
G36*
X680640Y128104D02*
X680640Y128104D01*
X679006Y128781D01*
X677535Y129764D01*
X676284Y131015D01*
X675301Y132486D01*
X674624Y134120D01*
X674279Y135856D01*
X674279Y141231D01*
X681311Y141231D01*
X681311Y127971D01*
X680640Y128104D01*
G37*
%LPD*%
%LPC*%
G36*
X377669Y395249D02*
X377669Y395249D01*
X377669Y404153D01*
X378448Y404030D01*
X380064Y403505D01*
X381578Y402733D01*
X382953Y401735D01*
X384155Y400533D01*
X385153Y399158D01*
X385925Y397644D01*
X386450Y396028D01*
X386573Y395249D01*
X377669Y395249D01*
G37*
%LPD*%
%LPC*%
G36*
X230349Y392709D02*
X230349Y392709D01*
X230349Y401613D01*
X231128Y401490D01*
X232744Y400965D01*
X234258Y400193D01*
X235633Y399195D01*
X236835Y397993D01*
X237833Y396618D01*
X238605Y395104D01*
X239130Y393488D01*
X239253Y392709D01*
X230349Y392709D01*
G37*
%LPD*%
%LPC*%
G36*
X217947Y392709D02*
X217947Y392709D01*
X218070Y393488D01*
X218595Y395104D01*
X219367Y396618D01*
X220365Y397993D01*
X221567Y399195D01*
X222942Y400193D01*
X224456Y400965D01*
X226072Y401490D01*
X226851Y401613D01*
X226851Y392709D01*
X217947Y392709D01*
G37*
%LPD*%
%LPC*%
G36*
X365267Y395249D02*
X365267Y395249D01*
X365390Y396028D01*
X365915Y397644D01*
X366687Y399158D01*
X367685Y400533D01*
X368887Y401735D01*
X370262Y402733D01*
X371776Y403505D01*
X373392Y404030D01*
X374171Y404153D01*
X374171Y395249D01*
X365267Y395249D01*
G37*
%LPD*%
%LPC*%
G36*
X377669Y391751D02*
X377669Y391751D01*
X386573Y391751D01*
X386450Y390972D01*
X385925Y389356D01*
X385153Y387842D01*
X384155Y386467D01*
X382953Y385265D01*
X381578Y384267D01*
X380064Y383495D01*
X378448Y382970D01*
X377669Y382847D01*
X377669Y391751D01*
G37*
%LPD*%
%LPC*%
G36*
X230349Y389211D02*
X230349Y389211D01*
X239253Y389211D01*
X239130Y388432D01*
X238605Y386816D01*
X237833Y385302D01*
X236835Y383927D01*
X235633Y382725D01*
X234258Y381727D01*
X232744Y380955D01*
X231128Y380430D01*
X230349Y380307D01*
X230349Y389211D01*
G37*
%LPD*%
%LPC*%
G36*
X226072Y380430D02*
X226072Y380430D01*
X224456Y380955D01*
X222942Y381727D01*
X221567Y382725D01*
X220365Y383927D01*
X219367Y385302D01*
X218595Y386816D01*
X218070Y388432D01*
X217947Y389211D01*
X226851Y389211D01*
X226851Y380307D01*
X226072Y380430D01*
G37*
%LPD*%
%LPC*%
G36*
X373392Y382970D02*
X373392Y382970D01*
X371776Y383495D01*
X370262Y384267D01*
X368887Y385265D01*
X367685Y386467D01*
X366687Y387842D01*
X365915Y389356D01*
X365390Y390972D01*
X365267Y391751D01*
X374171Y391751D01*
X374171Y382847D01*
X373392Y382970D01*
G37*
%LPD*%
%LPC*%
G36*
X296580Y48192D02*
X296580Y48192D01*
X296580Y55814D01*
X298249Y55814D01*
X304201Y49862D01*
X304201Y48192D01*
X296580Y48192D01*
G37*
%LPD*%
%LPC*%
G36*
X296580Y35492D02*
X296580Y35492D01*
X296580Y43114D01*
X304201Y43114D01*
X304201Y41444D01*
X298249Y35492D01*
X296580Y35492D01*
G37*
%LPD*%
%LPC*%
G36*
X283880Y48192D02*
X283880Y48192D01*
X283880Y49862D01*
X289832Y55814D01*
X291501Y55814D01*
X291501Y48192D01*
X283880Y48192D01*
G37*
%LPD*%
%LPC*%
G36*
X289832Y35492D02*
X289832Y35492D01*
X283880Y41444D01*
X283880Y43114D01*
X291501Y43114D01*
X291501Y35492D01*
X289832Y35492D01*
G37*
%LPD*%
%LPC*%
G36*
X649521Y320758D02*
X649521Y320758D01*
X649521Y328102D01*
X649756Y328064D01*
X651184Y327600D01*
X652522Y326919D01*
X653737Y326036D01*
X654799Y324974D01*
X655681Y323759D01*
X656363Y322421D01*
X656827Y320993D01*
X656864Y320758D01*
X649521Y320758D01*
G37*
%LPD*%
%LPC*%
G36*
X649521Y473158D02*
X649521Y473158D01*
X649521Y480502D01*
X649756Y480464D01*
X651184Y480000D01*
X652522Y479319D01*
X653737Y478436D01*
X654799Y477374D01*
X655681Y476159D01*
X656363Y474821D01*
X656827Y473393D01*
X656864Y473158D01*
X649521Y473158D01*
G37*
%LPD*%
%LPC*%
G36*
X638178Y320758D02*
X638178Y320758D01*
X638216Y320993D01*
X638680Y322421D01*
X639362Y323759D01*
X640244Y324974D01*
X641306Y326036D01*
X642521Y326919D01*
X643859Y327600D01*
X645287Y328064D01*
X645522Y328102D01*
X645522Y320758D01*
X638178Y320758D01*
G37*
%LPD*%
%LPC*%
G36*
X649521Y316759D02*
X649521Y316759D01*
X656864Y316759D01*
X656827Y316524D01*
X656363Y315096D01*
X655681Y313758D01*
X654799Y312543D01*
X653737Y311481D01*
X652522Y310599D01*
X651184Y309917D01*
X649756Y309453D01*
X649521Y309416D01*
X649521Y316759D01*
G37*
%LPD*%
%LPC*%
G36*
X638178Y473158D02*
X638178Y473158D01*
X638216Y473393D01*
X638680Y474821D01*
X639362Y476159D01*
X640244Y477374D01*
X641306Y478436D01*
X642521Y479319D01*
X643859Y480000D01*
X645287Y480464D01*
X645522Y480502D01*
X645522Y473158D01*
X638178Y473158D01*
G37*
%LPD*%
%LPC*%
G36*
X649521Y469159D02*
X649521Y469159D01*
X656864Y469159D01*
X656827Y468924D01*
X656363Y467496D01*
X655681Y466158D01*
X654799Y464943D01*
X653737Y463881D01*
X652522Y462999D01*
X651184Y462317D01*
X649756Y461853D01*
X649521Y461816D01*
X649521Y469159D01*
G37*
%LPD*%
%LPC*%
G36*
X645287Y461853D02*
X645287Y461853D01*
X643859Y462317D01*
X642521Y462999D01*
X641306Y463881D01*
X640244Y464943D01*
X639362Y466158D01*
X638680Y467496D01*
X638216Y468924D01*
X638178Y469159D01*
X645522Y469159D01*
X645522Y461816D01*
X645287Y461853D01*
G37*
%LPD*%
%LPC*%
G36*
X645287Y309453D02*
X645287Y309453D01*
X643859Y309917D01*
X642521Y310599D01*
X641306Y311481D01*
X640244Y312543D01*
X639362Y313758D01*
X638680Y315096D01*
X638216Y316524D01*
X638178Y316759D01*
X645522Y316759D01*
X645522Y309416D01*
X645287Y309453D01*
G37*
%LPD*%
%LPC*%
G36*
X294040Y45652D02*
X294040Y45652D01*
X294040Y45654D01*
X294041Y45654D01*
X294041Y45652D01*
X294040Y45652D01*
G37*
%LPD*%
D10*
X228600Y365960D03*
D11*
X228600Y390960D03*
D10*
X375920Y368500D03*
D11*
X375920Y393500D03*
D12*
X44183Y253078D03*
D13*
X44183Y203078D03*
D14*
X120396Y261620D02*
X133604Y261620D01*
X133604Y236220D02*
X120396Y236220D01*
X120396Y109220D02*
X133604Y109220D01*
X133604Y83820D02*
X120396Y83820D01*
X120396Y210820D02*
X133604Y210820D01*
X133604Y185420D02*
X120396Y185420D01*
X120396Y134620D02*
X133604Y134620D01*
X133604Y160020D02*
X120396Y160020D01*
X196596Y83820D02*
X209804Y83820D01*
X209804Y109220D02*
X196596Y109220D01*
X196596Y134620D02*
X209804Y134620D01*
X209804Y160020D02*
X196596Y160020D01*
X196596Y185420D02*
X209804Y185420D01*
X209804Y210820D02*
X196596Y210820D01*
X196596Y236220D02*
X209804Y236220D01*
X209804Y261620D02*
X196596Y261620D01*
D12*
X44206Y97890D03*
D13*
X44206Y147890D03*
D14*
X399396Y39200D02*
X399396Y25992D01*
X348596Y25992D02*
X348596Y39200D01*
X373996Y39200D02*
X373996Y25992D01*
D15*
X217841Y20253D03*
X217841Y45653D03*
X243241Y20253D03*
X243241Y45653D03*
X268641Y20253D03*
X268641Y45653D03*
X294041Y20253D03*
X294041Y45653D03*
D16*
X596721Y318759D03*
D17*
X622121Y318759D03*
X647521Y318759D03*
X672921Y318759D03*
X698321Y318759D03*
X698321Y471159D03*
X672921Y471159D03*
X647521Y471159D03*
X622121Y471159D03*
X596721Y471159D03*
D18*
X581660Y149620D02*
X581660Y136740D01*
X607060Y136740D02*
X607060Y149620D01*
X632460Y149620D02*
X632460Y136740D01*
X657860Y136740D02*
X657860Y149620D01*
X683260Y149620D02*
X683260Y136740D01*
X708660Y136740D02*
X708660Y149620D01*
X734060Y149620D02*
X734060Y136740D01*
X759460Y136740D02*
X759460Y149620D01*
X759460Y216140D02*
X759460Y229020D01*
X734060Y229020D02*
X734060Y216140D01*
X708660Y216140D02*
X708660Y229020D01*
X683260Y229020D02*
X683260Y216140D01*
X657860Y216140D02*
X657860Y229020D01*
X632460Y229020D02*
X632460Y216140D01*
X607060Y216140D02*
X607060Y229020D01*
X581660Y229020D02*
X581660Y216140D01*
D11*
X276679Y241119D03*
X312601Y277041D03*
D19*
X375920Y91440D03*
X381000Y314960D03*
X447040Y271780D03*
D20*
X513080Y271780D01*
X535940Y248920D01*
D19*
X535940Y248920D03*
X327660Y88900D03*
D21*
X345440Y88900D01*
X360680Y104140D01*
X360680Y160020D01*
D19*
X360680Y160020D03*
D21*
X217841Y65441D02*
X217841Y45653D01*
X217841Y65441D02*
X228600Y76200D01*
X584200Y76200D01*
X599440Y60960D01*
X652780Y60960D02*
X665480Y48260D01*
X685800Y48260D01*
D19*
X685800Y48260D03*
D21*
X652780Y60960D02*
X599440Y60960D01*
X231140Y33552D02*
X217841Y20253D01*
X231140Y33552D02*
X231140Y55880D01*
X238760Y63500D01*
X579120Y63500D02*
X594360Y48260D01*
D19*
X632460Y48260D03*
D21*
X579120Y63500D02*
X238760Y63500D01*
X594360Y48260D02*
X632460Y48260D01*
D19*
X487680Y200660D03*
X325120Y127000D03*
D21*
X325120Y172720D01*
X340360Y187960D01*
X375920Y187960D01*
X388620Y200660D01*
X487680Y200660D01*
D19*
X335280Y111760D03*
D21*
X335280Y165100D01*
X347980Y177800D01*
D19*
X378460Y177800D03*
D21*
X347980Y177800D01*
D19*
X373380Y203200D03*
X294640Y111760D03*
D21*
X294640Y193040D01*
X304800Y203200D01*
X373380Y203200D01*
X157480Y261620D02*
X127000Y261620D01*
X157480Y261620D02*
X170180Y248920D01*
X226060Y248920D02*
X236220Y238760D01*
X226060Y248920D02*
X170180Y248920D01*
X236220Y177800D02*
X238760Y175260D01*
X243840Y175260D01*
X236220Y177800D02*
X236220Y238760D01*
D19*
X243840Y175260D03*
D22*
X155510Y147890D02*
X44206Y147890D01*
X155510Y147890D02*
X165100Y157480D01*
X165100Y198120D01*
X177800Y210820D02*
X203200Y210820D01*
X177800Y210820D02*
X165100Y198120D01*
X158850Y97890D02*
X44206Y97890D01*
X158850Y97890D02*
X167640Y106680D01*
X167640Y126089D01*
X176171Y134620D01*
X203200Y134620D01*
D21*
X622121Y302439D02*
X622121Y318759D01*
X622121Y302439D02*
X627380Y297180D01*
X688340Y297180D01*
D19*
X688340Y297180D03*
D21*
X596721Y287199D02*
X596721Y318759D01*
X596721Y287199D02*
X604520Y279400D01*
X723900Y279400D01*
D19*
X723900Y279400D03*
X355600Y330200D03*
X177800Y330200D03*
X85103Y444006D03*
X218934Y445723D03*
X398405Y442633D03*
X406640Y332060D03*
X248788Y474568D03*
X192168Y473881D03*
X360657Y473538D03*
X432720Y472851D03*
X466350Y443319D03*
X471154Y331030D03*
X469095Y386316D03*
X546305Y474568D03*
X546648Y425806D03*
X549050Y377731D03*
X549737Y324506D03*
X422426Y299095D03*
X470811Y297034D03*
X158881Y298064D03*
X314674Y316951D03*
X308154Y225265D03*
X157852Y216681D03*
X438897Y28845D03*
X520911Y25754D03*
X531892Y130146D03*
X608949Y25732D03*
X651456Y25237D03*
X693470Y25732D03*
X761680Y101442D03*
X498725Y238018D03*
X751794Y411706D03*
X751794Y362717D03*
X752783Y311749D03*
X772060Y275131D03*
M02*
