G04 EAGLE Gerber RS-274X export*
G75*
%MOMM*%
%FSLAX34Y34*%
%LPD*%
%IN*%
%IPPOS*%
%AMOC8*
5,1,8,0,0,1.08239X$1,22.5*%
G01*
%ADD10C,0.254000*%


D10*
X0Y0D02*
X800002Y0D01*
X800002Y500002D01*
X0Y500002D01*
X0Y0D01*
X97040Y349146D02*
X96257Y349215D01*
X95483Y349351D01*
X94724Y349555D01*
X93986Y349823D01*
X93274Y350156D01*
X92593Y350549D01*
X91949Y350999D01*
X91347Y351505D01*
X90791Y352060D01*
X90286Y352662D01*
X89835Y353306D01*
X89443Y353987D01*
X89110Y354699D01*
X88842Y355437D01*
X88638Y356197D01*
X88502Y356970D01*
X88433Y357753D01*
X88433Y358539D01*
X88502Y359322D01*
X88638Y360096D01*
X88842Y360855D01*
X89110Y361594D01*
X89443Y362306D01*
X89835Y362987D01*
X90286Y363630D01*
X90791Y364232D01*
X91347Y364788D01*
X91949Y365293D01*
X92593Y365744D01*
X93274Y366137D01*
X93986Y366469D01*
X94724Y366738D01*
X95483Y366941D01*
X96257Y367078D01*
X97040Y367146D01*
X97826Y367146D01*
X98609Y367078D01*
X99383Y366941D01*
X100142Y366738D01*
X100881Y366469D01*
X101593Y366137D01*
X102274Y365744D01*
X102917Y365293D01*
X103519Y364788D01*
X104075Y364232D01*
X104580Y363630D01*
X105031Y362987D01*
X105424Y362306D01*
X105756Y361594D01*
X106025Y360855D01*
X106228Y360096D01*
X106365Y359322D01*
X106433Y358539D01*
X106433Y357753D01*
X106365Y356970D01*
X106228Y356197D01*
X106025Y355437D01*
X105756Y354699D01*
X105424Y353987D01*
X105031Y353306D01*
X104580Y352662D01*
X104075Y352060D01*
X103519Y351505D01*
X102917Y350999D01*
X102274Y350549D01*
X101593Y350156D01*
X100881Y349823D01*
X100142Y349555D01*
X99383Y349351D01*
X98609Y349215D01*
X97826Y349146D01*
X97040Y349146D01*
X52040Y350146D02*
X51258Y350223D01*
X50487Y350377D01*
X49735Y350605D01*
X49009Y350906D01*
X48315Y351276D01*
X47662Y351713D01*
X47054Y352212D01*
X46498Y352767D01*
X46000Y353375D01*
X45563Y354029D01*
X45193Y354722D01*
X44892Y355448D01*
X44664Y356200D01*
X44510Y356971D01*
X44433Y357753D01*
X44433Y358539D01*
X44510Y359322D01*
X44664Y360093D01*
X44892Y360845D01*
X45193Y361571D01*
X45563Y362264D01*
X46000Y362918D01*
X46498Y363525D01*
X47054Y364081D01*
X47662Y364580D01*
X48315Y365016D01*
X49009Y365387D01*
X49735Y365688D01*
X50487Y365916D01*
X51258Y366069D01*
X52040Y366146D01*
X52826Y366146D01*
X53608Y366069D01*
X54379Y365916D01*
X55132Y365688D01*
X55858Y365387D01*
X56551Y365016D01*
X57205Y364580D01*
X57812Y364081D01*
X58368Y363525D01*
X58867Y362918D01*
X59303Y362264D01*
X59674Y361571D01*
X59975Y360845D01*
X60203Y360093D01*
X60356Y359322D01*
X60433Y358539D01*
X60433Y357753D01*
X60356Y356971D01*
X60203Y356200D01*
X59975Y355448D01*
X59674Y354722D01*
X59303Y354029D01*
X58867Y353375D01*
X58368Y352767D01*
X57812Y352212D01*
X57205Y351713D01*
X56551Y351276D01*
X55858Y350906D01*
X55132Y350605D01*
X54379Y350377D01*
X53608Y350223D01*
X52826Y350146D01*
X52040Y350146D01*
X50155Y463727D02*
X50084Y462729D01*
X49942Y461740D01*
X49729Y460762D01*
X49447Y459803D01*
X49098Y458866D01*
X48682Y457956D01*
X48203Y457079D01*
X47662Y456237D01*
X47063Y455437D01*
X46408Y454681D01*
X45701Y453974D01*
X44945Y453319D01*
X44145Y452720D01*
X43304Y452179D01*
X42426Y451700D01*
X41516Y451284D01*
X40579Y450935D01*
X39620Y450653D01*
X38643Y450441D01*
X37653Y450298D01*
X36655Y450227D01*
X35655Y450227D01*
X34658Y450298D01*
X33668Y450441D01*
X32691Y450653D01*
X31731Y450935D01*
X30794Y451284D01*
X29885Y451700D01*
X29007Y452179D01*
X28166Y452720D01*
X27365Y453319D01*
X26609Y453974D01*
X25902Y454681D01*
X25247Y455437D01*
X24648Y456237D01*
X24107Y457079D01*
X23628Y457956D01*
X23213Y458866D01*
X22863Y459803D01*
X22581Y460762D01*
X22369Y461740D01*
X22227Y462729D01*
X22155Y463727D01*
X22155Y464727D01*
X22227Y465724D01*
X22369Y466714D01*
X22581Y467691D01*
X22863Y468651D01*
X23213Y469588D01*
X23628Y470498D01*
X24107Y471375D01*
X24648Y472217D01*
X25247Y473017D01*
X25902Y473773D01*
X26609Y474480D01*
X27365Y475135D01*
X28166Y475734D01*
X29007Y476275D01*
X29885Y476754D01*
X30794Y477170D01*
X31731Y477519D01*
X32691Y477801D01*
X33668Y478013D01*
X34658Y478156D01*
X35655Y478227D01*
X36655Y478227D01*
X37653Y478156D01*
X38643Y478013D01*
X39620Y477801D01*
X40579Y477519D01*
X41516Y477170D01*
X42426Y476754D01*
X43304Y476275D01*
X44145Y475734D01*
X44945Y475135D01*
X45701Y474480D01*
X46408Y473773D01*
X47063Y473017D01*
X47662Y472217D01*
X48203Y471375D01*
X48682Y470498D01*
X49098Y469588D01*
X49447Y468651D01*
X49729Y467691D01*
X49942Y466714D01*
X50084Y465724D01*
X50155Y464727D01*
X50155Y463727D01*
X778305Y463616D02*
X778234Y462618D01*
X778091Y461629D01*
X777879Y460651D01*
X777597Y459692D01*
X777248Y458755D01*
X776832Y457845D01*
X776353Y456968D01*
X775812Y456126D01*
X775213Y455326D01*
X774558Y454570D01*
X773851Y453863D01*
X773095Y453208D01*
X772295Y452609D01*
X771453Y452068D01*
X770576Y451589D01*
X769666Y451173D01*
X768729Y450824D01*
X767770Y450542D01*
X766792Y450330D01*
X765803Y450187D01*
X764805Y450116D01*
X763805Y450116D01*
X762808Y450187D01*
X761818Y450330D01*
X760841Y450542D01*
X759881Y450824D01*
X758944Y451173D01*
X758034Y451589D01*
X757157Y452068D01*
X756316Y452609D01*
X755515Y453208D01*
X754759Y453863D01*
X754052Y454570D01*
X753397Y455326D01*
X752798Y456126D01*
X752257Y456968D01*
X751778Y457845D01*
X751363Y458755D01*
X751013Y459692D01*
X750731Y460651D01*
X750519Y461629D01*
X750376Y462618D01*
X750305Y463616D01*
X750305Y464616D01*
X750376Y465613D01*
X750519Y466603D01*
X750731Y467580D01*
X751013Y468540D01*
X751363Y469477D01*
X751778Y470387D01*
X752257Y471264D01*
X752798Y472106D01*
X753397Y472906D01*
X754052Y473662D01*
X754759Y474369D01*
X755515Y475024D01*
X756316Y475623D01*
X757157Y476164D01*
X758034Y476643D01*
X758944Y477058D01*
X759881Y477408D01*
X760841Y477690D01*
X761818Y477902D01*
X762808Y478045D01*
X763805Y478116D01*
X764805Y478116D01*
X765803Y478045D01*
X766792Y477902D01*
X767770Y477690D01*
X768729Y477408D01*
X769666Y477058D01*
X770576Y476643D01*
X771453Y476164D01*
X772295Y475623D01*
X773095Y475024D01*
X773851Y474369D01*
X774558Y473662D01*
X775213Y472906D01*
X775812Y472106D01*
X776353Y471264D01*
X776832Y470387D01*
X777248Y469477D01*
X777597Y468540D01*
X777879Y467580D01*
X778091Y466603D01*
X778234Y465613D01*
X778305Y464616D01*
X778305Y463616D01*
X777755Y35753D02*
X777684Y34755D01*
X777542Y33766D01*
X777329Y32788D01*
X777047Y31829D01*
X776698Y30892D01*
X776282Y29982D01*
X775803Y29105D01*
X775262Y28263D01*
X774663Y27463D01*
X774008Y26707D01*
X773301Y26000D01*
X772545Y25345D01*
X771745Y24746D01*
X770904Y24205D01*
X770026Y23726D01*
X769116Y23310D01*
X768179Y22961D01*
X767220Y22679D01*
X766243Y22467D01*
X765253Y22324D01*
X764255Y22253D01*
X763255Y22253D01*
X762258Y22324D01*
X761268Y22467D01*
X760291Y22679D01*
X759331Y22961D01*
X758394Y23310D01*
X757485Y23726D01*
X756607Y24205D01*
X755766Y24746D01*
X754965Y25345D01*
X754209Y26000D01*
X753502Y26707D01*
X752847Y27463D01*
X752248Y28263D01*
X751707Y29105D01*
X751228Y29982D01*
X750813Y30892D01*
X750463Y31829D01*
X750181Y32788D01*
X749969Y33766D01*
X749827Y34755D01*
X749755Y35753D01*
X749755Y36753D01*
X749827Y37750D01*
X749969Y38740D01*
X750181Y39717D01*
X750463Y40677D01*
X750813Y41614D01*
X751228Y42524D01*
X751707Y43401D01*
X752248Y44243D01*
X752847Y45043D01*
X753502Y45799D01*
X754209Y46506D01*
X754965Y47161D01*
X755766Y47760D01*
X756607Y48301D01*
X757485Y48780D01*
X758394Y49196D01*
X759331Y49545D01*
X760291Y49827D01*
X761268Y50039D01*
X762258Y50182D01*
X763255Y50253D01*
X764255Y50253D01*
X765253Y50182D01*
X766243Y50039D01*
X767220Y49827D01*
X768179Y49545D01*
X769116Y49196D01*
X770026Y48780D01*
X770904Y48301D01*
X771745Y47760D01*
X772545Y47161D01*
X773301Y46506D01*
X774008Y45799D01*
X774663Y45043D01*
X775262Y44243D01*
X775803Y43401D01*
X776282Y42524D01*
X776698Y41614D01*
X777047Y40677D01*
X777329Y39717D01*
X777542Y38740D01*
X777684Y37750D01*
X777755Y36753D01*
X777755Y35753D01*
X50095Y35533D02*
X50024Y34536D01*
X49881Y33546D01*
X49669Y32569D01*
X49387Y31609D01*
X49038Y30672D01*
X48622Y29763D01*
X48143Y28885D01*
X47602Y28044D01*
X47003Y27243D01*
X46348Y26487D01*
X45641Y25780D01*
X44885Y25125D01*
X44085Y24526D01*
X43243Y23985D01*
X42366Y23506D01*
X41456Y23091D01*
X40519Y22741D01*
X39560Y22459D01*
X38582Y22247D01*
X37593Y22105D01*
X36595Y22033D01*
X35595Y22033D01*
X34598Y22105D01*
X33608Y22247D01*
X32631Y22459D01*
X31671Y22741D01*
X30734Y23091D01*
X29825Y23506D01*
X28947Y23985D01*
X28106Y24526D01*
X27305Y25125D01*
X26549Y25780D01*
X25842Y26487D01*
X25187Y27243D01*
X24588Y28044D01*
X24047Y28885D01*
X23568Y29763D01*
X23153Y30672D01*
X22803Y31609D01*
X22521Y32569D01*
X22309Y33546D01*
X22166Y34536D01*
X22095Y35533D01*
X22095Y36533D01*
X22166Y37531D01*
X22309Y38521D01*
X22521Y39498D01*
X22803Y40457D01*
X23153Y41394D01*
X23568Y42304D01*
X24047Y43182D01*
X24588Y44023D01*
X25187Y44823D01*
X25842Y45579D01*
X26549Y46286D01*
X27305Y46941D01*
X28106Y47540D01*
X28947Y48081D01*
X29825Y48560D01*
X30734Y48976D01*
X31671Y49325D01*
X32631Y49607D01*
X33608Y49820D01*
X34598Y49962D01*
X35595Y50033D01*
X36595Y50033D01*
X37593Y49962D01*
X38582Y49820D01*
X39560Y49607D01*
X40519Y49325D01*
X41456Y48976D01*
X42366Y48560D01*
X43243Y48081D01*
X44085Y47540D01*
X44885Y46941D01*
X45641Y46286D01*
X46348Y45579D01*
X47003Y44823D01*
X47602Y44023D01*
X48143Y43182D01*
X48622Y42304D01*
X49038Y41394D01*
X49387Y40457D01*
X49669Y39498D01*
X49881Y38521D01*
X50024Y37531D01*
X50095Y36533D01*
X50095Y35533D01*
M02*
