G04 EAGLE Gerber RS-274X export*
G75*
%MOMM*%
%FSLAX34Y34*%
%LPD*%
%INSolderpaste Top*%
%IPPOS*%
%AMOC8*
5,1,8,0,0,1.08239X$1,22.5*%
G01*
%ADD10R,1.100000X1.000000*%
%ADD11R,1.000000X1.100000*%
%ADD12R,1.270000X1.470000*%
%ADD13C,1.100000*%
%ADD14R,0.910000X0.930000*%
%ADD15R,2.000000X2.000000*%
%ADD16R,5.400000X6.200000*%
%ADD17R,1.000000X1.600000*%
%ADD18R,1.600000X2.300000*%
%ADD19R,0.550000X1.500000*%
%ADD20R,1.500000X0.550000*%


D10*
G36*
X280944Y303255D02*
X288721Y311032D01*
X295792Y303961D01*
X288015Y296184D01*
X280944Y303255D01*
G37*
G36*
X268796Y291107D02*
X276573Y298884D01*
X283644Y291813D01*
X275867Y284036D01*
X268796Y291107D01*
G37*
G36*
X254996Y263165D02*
X247219Y255388D01*
X240148Y262459D01*
X247925Y270236D01*
X254996Y263165D01*
G37*
G36*
X267144Y275313D02*
X259367Y267536D01*
X252296Y274607D01*
X260073Y282384D01*
X267144Y275313D01*
G37*
X455730Y200660D03*
X472910Y200660D03*
D11*
X203200Y313890D03*
X203200Y296710D03*
X226060Y313890D03*
X226060Y296710D03*
X556260Y206810D03*
X556260Y223990D03*
X535940Y206810D03*
X535940Y223990D03*
X436880Y54410D03*
X436880Y71590D03*
X180340Y387550D03*
X180340Y370370D03*
X424180Y390090D03*
X424180Y372910D03*
X530860Y54410D03*
X530860Y71590D03*
X363220Y275790D03*
X363220Y258610D03*
X381000Y275790D03*
X381000Y258610D03*
D10*
X374850Y111760D03*
X357670Y111760D03*
D11*
X403860Y275790D03*
X403860Y258610D03*
D12*
X113813Y452965D03*
X156813Y452965D03*
D13*
X492007Y408583D02*
X492007Y399583D01*
X509007Y399583D02*
X509007Y408583D01*
X526007Y408583D02*
X526007Y399583D01*
X526007Y447583D02*
X526007Y456583D01*
X509007Y456583D02*
X509007Y447583D01*
X492007Y447583D02*
X492007Y456583D01*
D14*
X441940Y416560D03*
X426740Y416560D03*
D15*
X113933Y413146D03*
X52433Y413146D03*
X52433Y303146D03*
X113933Y303146D03*
D16*
X302260Y439020D03*
D17*
X279460Y366020D03*
X325060Y366020D03*
D11*
X513080Y72000D03*
X513080Y55000D03*
X635000Y280280D03*
X635000Y263280D03*
X652780Y280280D03*
X652780Y263280D03*
X670560Y280280D03*
X670560Y263280D03*
X688340Y280280D03*
X688340Y263280D03*
X706120Y280280D03*
X706120Y263280D03*
X599440Y280280D03*
X599440Y263280D03*
X617220Y280280D03*
X617220Y263280D03*
X457200Y72000D03*
X457200Y55000D03*
X528320Y374260D03*
X528320Y357260D03*
X492760Y374260D03*
X492760Y357260D03*
X668020Y90560D03*
X668020Y107560D03*
X510540Y374260D03*
X510540Y357260D03*
X447040Y389500D03*
X447040Y372500D03*
X650240Y90560D03*
X650240Y107560D03*
X718820Y90560D03*
X718820Y107560D03*
X596900Y90560D03*
X596900Y107560D03*
X614680Y90560D03*
X614680Y107560D03*
X701040Y90560D03*
X701040Y107560D03*
X685800Y107560D03*
X685800Y90560D03*
X632460Y107560D03*
X632460Y90560D03*
D18*
X557758Y22652D03*
X557758Y84652D03*
X484225Y25011D03*
X484225Y87011D03*
D19*
X401380Y225880D03*
X393380Y225880D03*
X385380Y225880D03*
X377380Y225880D03*
X369380Y225880D03*
X361380Y225880D03*
X353380Y225880D03*
X345380Y225880D03*
D20*
X330380Y210880D03*
X330380Y202880D03*
X330380Y194880D03*
X330380Y186880D03*
X330380Y178880D03*
X330380Y170880D03*
X330380Y162880D03*
X330380Y154880D03*
D19*
X345380Y139880D03*
X353380Y139880D03*
X361380Y139880D03*
X369380Y139880D03*
X377380Y139880D03*
X385380Y139880D03*
X393380Y139880D03*
X401380Y139880D03*
D20*
X416380Y154880D03*
X416380Y162880D03*
X416380Y170880D03*
X416380Y178880D03*
X416380Y186880D03*
X416380Y194880D03*
X416380Y202880D03*
X416380Y210880D03*
M02*
