G04 EAGLE Gerber RS-274X export*
G75*
%MOMM*%
%FSLAX34Y34*%
%LPD*%
%INSoldermask Top*%
%IPPOS*%
%AMOC8*
5,1,8,0,0,1.08239X$1,22.5*%
G01*
%ADD10R,1.854200X1.854200*%
%ADD11C,1.854200*%
%ADD12R,1.303200X1.203200*%
%ADD13R,1.203200X1.303200*%
%ADD14R,1.853200X1.853200*%
%ADD15C,1.853200*%
%ADD16R,1.473200X1.673200*%
%ADD17C,1.303200*%
%ADD18R,1.113200X1.133200*%
%ADD19R,2.203200X2.203200*%
%ADD20C,2.003200*%
%ADD21C,1.803200*%
%ADD22C,3.003200*%
%ADD23R,5.603200X6.403200*%
%ADD24R,1.203200X1.803200*%
%ADD25C,1.524000*%
%ADD26P,1.869504X8X22.500000*%
%ADD27R,1.803200X2.503200*%
%ADD28R,0.753200X1.703200*%
%ADD29R,1.703200X0.753200*%
%ADD30R,1.603200X1.603200*%
%ADD31C,1.603200*%
%ADD32C,1.491200*%
%ADD33C,0.959600*%


D10*
X228600Y365960D03*
D11*
X228600Y390960D03*
D12*
G36*
X279507Y303255D02*
X288721Y312469D01*
X297229Y303961D01*
X288015Y294747D01*
X279507Y303255D01*
G37*
G36*
X267359Y291107D02*
X276573Y300321D01*
X285081Y291813D01*
X275867Y282599D01*
X267359Y291107D01*
G37*
G36*
X256433Y263165D02*
X247219Y253951D01*
X238711Y262459D01*
X247925Y271673D01*
X256433Y263165D01*
G37*
G36*
X268581Y275313D02*
X259367Y266099D01*
X250859Y274607D01*
X260073Y283821D01*
X268581Y275313D01*
G37*
X455730Y200660D03*
X472910Y200660D03*
D13*
X203200Y313890D03*
X203200Y296710D03*
X226060Y313890D03*
X226060Y296710D03*
X556260Y206810D03*
X556260Y223990D03*
X535940Y206810D03*
X535940Y223990D03*
X436880Y54410D03*
X436880Y71590D03*
D10*
X375920Y368500D03*
D11*
X375920Y393500D03*
D13*
X180340Y387550D03*
X180340Y370370D03*
X424180Y390090D03*
X424180Y372910D03*
X530860Y54410D03*
X530860Y71590D03*
X363220Y275790D03*
X363220Y258610D03*
X381000Y275790D03*
X381000Y258610D03*
D12*
X374850Y111760D03*
X357670Y111760D03*
D13*
X403860Y275790D03*
X403860Y258610D03*
D14*
X44183Y253078D03*
D15*
X44183Y203078D03*
D16*
X113813Y452965D03*
X156813Y452965D03*
D17*
X492007Y408583D02*
X492007Y399583D01*
X509007Y399583D02*
X509007Y408583D01*
X526007Y408583D02*
X526007Y399583D01*
X526007Y447583D02*
X526007Y456583D01*
X509007Y456583D02*
X509007Y447583D01*
X492007Y447583D02*
X492007Y456583D01*
D18*
X441940Y416560D03*
X426740Y416560D03*
D19*
X113933Y413146D03*
X52433Y413146D03*
X52433Y303146D03*
X113933Y303146D03*
D20*
X97433Y358146D03*
D21*
X52433Y358146D03*
D22*
X36155Y464227D03*
X764305Y464116D03*
X763755Y36253D03*
X36095Y36033D03*
D23*
X302260Y439020D03*
D24*
X279460Y366020D03*
X325060Y366020D03*
D25*
X133604Y261620D02*
X120396Y261620D01*
X120396Y236220D02*
X133604Y236220D01*
X133604Y109220D02*
X120396Y109220D01*
X120396Y83820D02*
X133604Y83820D01*
X133604Y210820D02*
X120396Y210820D01*
X120396Y185420D02*
X133604Y185420D01*
X133604Y134620D02*
X120396Y134620D01*
X120396Y160020D02*
X133604Y160020D01*
X196596Y83820D02*
X209804Y83820D01*
X209804Y109220D02*
X196596Y109220D01*
X196596Y134620D02*
X209804Y134620D01*
X209804Y160020D02*
X196596Y160020D01*
X196596Y185420D02*
X209804Y185420D01*
X209804Y210820D02*
X196596Y210820D01*
X196596Y236220D02*
X209804Y236220D01*
X209804Y261620D02*
X196596Y261620D01*
D14*
X44206Y97890D03*
D15*
X44206Y147890D03*
D13*
X513080Y72000D03*
X513080Y55000D03*
X635000Y280280D03*
X635000Y263280D03*
X652780Y280280D03*
X652780Y263280D03*
X670560Y280280D03*
X670560Y263280D03*
X688340Y280280D03*
X688340Y263280D03*
X706120Y280280D03*
X706120Y263280D03*
X599440Y280280D03*
X599440Y263280D03*
X617220Y280280D03*
X617220Y263280D03*
X457200Y72000D03*
X457200Y55000D03*
X528320Y374260D03*
X528320Y357260D03*
X492760Y374260D03*
X492760Y357260D03*
X668020Y90560D03*
X668020Y107560D03*
X510540Y374260D03*
X510540Y357260D03*
X447040Y389500D03*
X447040Y372500D03*
D25*
X399396Y39200D02*
X399396Y25992D01*
X348596Y25992D02*
X348596Y39200D01*
X373996Y39200D02*
X373996Y25992D01*
D13*
X650240Y90560D03*
X650240Y107560D03*
X718820Y90560D03*
X718820Y107560D03*
X596900Y90560D03*
X596900Y107560D03*
X614680Y90560D03*
X614680Y107560D03*
X701040Y90560D03*
X701040Y107560D03*
X685800Y107560D03*
X685800Y90560D03*
X632460Y107560D03*
X632460Y90560D03*
D26*
X217841Y20253D03*
X217841Y45653D03*
X243241Y20253D03*
X243241Y45653D03*
X268641Y20253D03*
X268641Y45653D03*
X294041Y20253D03*
X294041Y45653D03*
D27*
X557758Y22652D03*
X557758Y84652D03*
X484225Y25011D03*
X484225Y87011D03*
D28*
X401380Y225880D03*
X393380Y225880D03*
X385380Y225880D03*
X377380Y225880D03*
X369380Y225880D03*
X361380Y225880D03*
X353380Y225880D03*
X345380Y225880D03*
D29*
X330380Y210880D03*
X330380Y202880D03*
X330380Y194880D03*
X330380Y186880D03*
X330380Y178880D03*
X330380Y170880D03*
X330380Y162880D03*
X330380Y154880D03*
D28*
X345380Y139880D03*
X353380Y139880D03*
X361380Y139880D03*
X369380Y139880D03*
X377380Y139880D03*
X385380Y139880D03*
X393380Y139880D03*
X401380Y139880D03*
D29*
X416380Y154880D03*
X416380Y162880D03*
X416380Y170880D03*
X416380Y178880D03*
X416380Y186880D03*
X416380Y194880D03*
X416380Y202880D03*
X416380Y210880D03*
D30*
X596721Y318759D03*
D31*
X622121Y318759D03*
X647521Y318759D03*
X672921Y318759D03*
X698321Y318759D03*
X698321Y471159D03*
X672921Y471159D03*
X647521Y471159D03*
X622121Y471159D03*
X596721Y471159D03*
D32*
X581660Y149620D02*
X581660Y136740D01*
X607060Y136740D02*
X607060Y149620D01*
X632460Y149620D02*
X632460Y136740D01*
X657860Y136740D02*
X657860Y149620D01*
X683260Y149620D02*
X683260Y136740D01*
X708660Y136740D02*
X708660Y149620D01*
X734060Y149620D02*
X734060Y136740D01*
X759460Y136740D02*
X759460Y149620D01*
X759460Y216140D02*
X759460Y229020D01*
X734060Y229020D02*
X734060Y216140D01*
X708660Y216140D02*
X708660Y229020D01*
X683260Y229020D02*
X683260Y216140D01*
X657860Y216140D02*
X657860Y229020D01*
X632460Y229020D02*
X632460Y216140D01*
X607060Y216140D02*
X607060Y229020D01*
X581660Y229020D02*
X581660Y216140D01*
D11*
X276679Y241119D03*
X312601Y277041D03*
D33*
X375920Y91440D03*
X381000Y314960D03*
X447040Y271780D03*
X535940Y248920D03*
X327660Y88900D03*
X360680Y160020D03*
X685800Y48260D03*
X632460Y48260D03*
X487680Y200660D03*
X325120Y127000D03*
X335280Y111760D03*
X378460Y177800D03*
X373380Y203200D03*
X294640Y111760D03*
X243840Y175260D03*
X688340Y297180D03*
X723900Y279400D03*
X355600Y330200D03*
X177800Y330200D03*
X85103Y444006D03*
X218934Y445723D03*
X398405Y442633D03*
X406640Y332060D03*
X248788Y474568D03*
X192168Y473881D03*
X360657Y473538D03*
X432720Y472851D03*
X466350Y443319D03*
X471154Y331030D03*
X469095Y386316D03*
X546305Y474568D03*
X546648Y425806D03*
X549050Y377731D03*
X549737Y324506D03*
X422426Y299095D03*
X470811Y297034D03*
X158881Y298064D03*
X314674Y316951D03*
X308154Y225265D03*
X157852Y216681D03*
X438897Y28845D03*
X520911Y25754D03*
X531892Y130146D03*
X608949Y25732D03*
X651456Y25237D03*
X693470Y25732D03*
X761680Y101442D03*
X498725Y238018D03*
X751794Y411706D03*
X751794Y362717D03*
X752783Y311749D03*
X772060Y275131D03*
M02*
