M48
;GenerationSoftware,Autodesk,EAGLE,9.6.2*%
;CreationDate,2025-05-26T13:55:17Z*%
FMAT,2
ICI,OFF
METRIC,TZ,000.000
T10C0.350
T9C0.700
T8C0.780
T7C0.800
T6C0.813
T5C1.016
T4C1.100
T3C1.600
T2C1.800
T1C2.800
%
G90
M71
T1
X76431Y46412
X3610Y3603
X76376Y3625
X3616Y46423
T2
X9743Y35815
T3
X5243Y35815
T4
X4421Y9789
X4421Y14789
X4418Y25308
X4418Y20308
T5
X29404Y4565
X29404Y2025
X26864Y4565
X26864Y2025
X24324Y4565
X24324Y2025
X21784Y4565
X21784Y2025
T6
X20320Y10922
X20320Y8382
X12700Y16002
X12700Y13462
X12700Y18542
X12700Y21082
X20320Y16002
X39940Y3260
X12700Y8382
X12700Y10922
X12700Y26162
X37400Y3260
X34860Y3260
X12700Y23622
X20320Y26162
X20320Y23622
X20320Y21082
X20320Y18542
X20320Y13462
T7
X69832Y47116
X59672Y47116
X62212Y31876
X64752Y31876
X59672Y31876
X67292Y31876
X69832Y31876
X67292Y47116
X64752Y47116
X62212Y47116
T8
X73406Y22258
X75946Y22258
X75946Y14318
X73406Y14318
X70866Y14318
X68326Y14318
X60706Y14318
X58166Y14318
X63246Y14318
X65786Y14318
X70866Y22258
X68326Y22258
X65786Y22258
X63246Y22258
X60706Y22258
X58166Y22258
T9
X22860Y39096
X37592Y36850
X37592Y39350
X22860Y36596
X27668Y24112
X31260Y27704
T10
X60895Y2573
X53189Y13015
X52091Y2575
X43890Y2884
X15785Y21668
X30815Y22527
X69347Y2573
X31467Y31695
X15888Y29806
X47081Y29703
X42243Y29909
X54974Y32451
X54905Y37773
X54665Y42581
X54630Y47457
X46909Y38632
X47115Y33103
X46635Y44332
X43272Y47285
X36066Y47354
X19217Y47388
X24879Y47457
X40664Y33206
X39840Y44263
X21893Y44572
X8510Y44401
X17780Y33020
X35560Y33020
X72390Y27940
X24384Y17526
X29464Y11176
X37338Y20320
X37846Y17780
X33528Y11176
X32512Y12700
X48768Y20066
X68834Y29718
X63246Y4826
X68580Y4826
X36068Y16002
X32766Y8890
X53594Y24892
X44704Y27178
X38100Y31496
X37592Y9144
X77206Y27513
X75278Y31175
X75179Y36272
X75179Y41171
X49872Y23802
X76168Y10144
X65146Y2524
M30